/* XPM */
static char *_767_1f2a4197839687ae57593e417f57d14016ba8398979fbad1469873487c613a32[] = {
/* columns rows colors chars-per-pixel */
"32 32 188 2 ",
"   c #552500",
".  c #145C01",
"X  c #1A5A04",
"o  c #1B5706",
"O  c #0F5800",
"+  c #25570B",
"@  c #2E5514",
"#  c #375519",
"$  c #196501",
"%  c #1E6D01",
"&  c #166400",
"*  c #1B7202",
"=  c #3B6602",
"-  c #237401",
";  c #2C7601",
":  c #2A7B01",
">  c #277901",
",  c #367B01",
"<  c #3D5421",
"1  c #5A4B1F",
"2  c #5D511E",
"3  c #69581D",
"4  c #484E25",
"5  c #5A4B23",
"6  c #5A4C2A",
"7  c #554B26",
"8  c #435523",
"9  c #485828",
"0  c #5D5122",
"q  c #52522C",
"w  c #5D4C34",
"e  c #5E4E3A",
"r  c #5C4732",
"t  c #5C5335",
"y  c #575635",
"u  c #614E37",
"i  c #624F39",
"p  c #635136",
"a  c #65533B",
"s  c #69563D",
"d  c #6C593E",
"f  c #625C38",
"g  c #715F3B",
"h  c #5E6038",
"j  c #72603C",
"k  c #574B4B",
"l  c #675641",
"z  c #6A5642",
"x  c #6C5A42",
"c  c #6F5D49",
"v  c #715E45",
"b  c #705D49",
"n  c #655959",
"m  c #73604A",
"M  c #716147",
"N  c #756C6F",
"B  c #934B01",
"V  c #9A7B0A",
"C  c #8B6033",
"Z  c #B27735",
"A  c #8C724E",
"S  c #2D8100",
"D  c #358401",
"F  c #3B8A00",
"G  c #388501",
"H  c #498600",
"J  c #5D8200",
"K  c #568A01",
"L  c #439200",
"P  c #4A9501",
"I  c #4D9A00",
"U  c #529D01",
"Y  c #5C9D00",
"T  c #418517",
"R  c #608401",
"E  c #7F8C01",
"W  c #6C9701",
"Q  c #629C00",
"!  c #739701",
"~  c #729A01",
"^  c #5AA401",
"/  c #5AA500",
"(  c #6CA500",
")  c #63AC01",
"_  c #65A202",
"`  c #6EB401",
"'  c #75BC01",
"]  c #79BB00",
"[  c #729F38",
"{  c #66A128",
"}  c #7DC001",
"|  c #7FA551",
" . c #848E01",
".. c #9C9E00",
"X. c #A39400",
"o. c #A89701",
"O. c #B49802",
"+. c #AB8D07",
"@. c #BAA001",
"#. c #B7A100",
"$. c #B3BE00",
"%. c #AE8327",
"&. c #B3822A",
"*. c #C9A019",
"=. c #D1A61B",
"-. c #E0BD02",
";. c #CF992C",
":. c #CF943B",
">. c #DEAC37",
",. c #82C401",
"<. c #86CA01",
"1. c #8BCC01",
"2. c #8ECC09",
"3. c #91CD02",
"4. c #9CCE01",
"5. c #9AD204",
"6. c #A3C401",
"7. c #B3CA01",
"8. c #ABD901",
"9. c #A2D502",
"0. c #93C331",
"q. c #DEC804",
"w. c #C3D402",
"e. c #E4CC00",
"r. c #ECCB07",
"t. c #EEDB01",
"y. c #EAD303",
"u. c #FAD601",
"i. c #F1CE02",
"p. c #DBEC04",
"a. c #EFEE03",
"s. c #FDE003",
"d. c #FAEE01",
"f. c #F1ED03",
"g. c #E6F201",
"h. c #F3F302",
"j. c #F5F900",
"k. c #FCF903",
"l. c #FEF509",
"z. c #FEF909",
"x. c #F0F015",
"c. c #A18C5D",
"v. c #B8895F",
"b. c #B88964",
"n. c #9BB670",
"m. c #BBB676",
"M. c #CBB048",
"N. c #E1BD4E",
"B. c #DD9E7A",
"V. c #D7AE7E",
"C. c #E4B878",
"Z. c #F7CC49",
"A. c #B2A295",
"S. c #AFB291",
"D. c #AFAFAF",
"F. c #B1B2AD",
"G. c #B0B3A0",
"H. c #B8B9B8",
"J. c #D89D81",
"K. c #E3AF87",
"L. c #E8BA90",
"P. c #E6B887",
"I. c #EEC38C",
"U. c #F0C38D",
"Y. c #EDC697",
"T. c #F0C696",
"R. c #FFE284",
"E. c #C8C6BC",
"W. c #EFC7A2",
"Q. c #F0C5A2",
"!. c #FCDDAC",
"~. c #F6D8A7",
"^. c #F5DFBA",
"/. c #FFE1AE",
"(. c #FEE1B1",
"). c #C7C7C7",
"_. c #D2CCC6",
"`. c #DDD6CB",
"'. c #DDDDDC",
"]. c #D4D4D3",
"[. c #CFCFD1",
"{. c #E1DDDA",
"}. c #E1E2DD",
"|. c #E3E3E3",
" X c #EBE9E6",
".X c #EAE9E9",
"XX c #EBE7E3",
"oX c #F9F0E9",
/* pixels */
"x l p w w i a p w a a a a f + O . + t a f a a d z a d d a a z b ",
"l a w r w w a a a a p # X X - - - * X X < s a x x d a a a a z b ",
"s a w r k e e p a e @ $ - : P U U P - - $ @ s a a a u a s s x v ",
"a a a a f l l p q o % F I U } <.<.} / I F % o q a p p d d d d d ",
"i p a a a p a 8 X - L I / <.<.1.<.<.<./ U L - X < p p a i i s d ",
"w w i a s a # $ : P I ` <.1.1.1.1.1.1.<.` I P : . # e p u a a u ",
"e w u a t + $ S I U ] 1.1.1.1.3.1.1.<.1.1.' U I D $ + w p s s a ",
"s a a y o % - D / ,.1.<.3.3.y.d.h.y.5.1.1.1.,./ D - % o q p p s ",
"s a i q X - F ) <.1.1.w.s.j.k.k.k.k.k.u.w.1.3.<.) G % X q a x v ",
"u i 8 X - - F ) 4.t.d.l.z.z.z.z.z.z.z.z.l.d.y.4.) F - - X 9 m v ",
"a d 8 . - L ` 7.u.l.u.Z.I.I.U.U.U.U.I.U.Z.s.l.t.7.` L > . 8 v v ",
"d M 9 . - L $.r.=.C.P.T.~././././././.~.T.P.C.=.r.7.L - . 9 d d ",
"x v 8 . - P ..>.V.j 6 6 A !././././.!.A 5 6 g K.>...P ; . 9 M d ",
"z s 8 . > X.:.B.Y._.k N `.!././././.(.`.N k _.L.B.:.X.; . 9 x s ",
"d a 4 . ; o.&.b.W. Xn k A.!.(././.(./.A.k n  XQ.b.Z X.; . < u p ",
"v p # X ; X.%.b.W.oXA   C !.(./.(.(.~.C   A oXY.v.%...; X 8 a s ",
"l u e 9 o -  .;.J.L.Z B Z !.(.(.(.(./.Z B Z L.B.;. .% X y z x M ",
"i i l y X * E M._.J.K.Y.(. X.X X X.X.X(.Y.K.J.E.M. .% X y z s x ",
"l l m h o - F [ F.{.].'.|.[.|.|..X|.[.}.'.].'.D.[ F - + q a s x ",
"z b < = +.H : F { E.|.'.).D.D.F.D.D.D.).'.|.).[ D : H X.= < d a ",
"s b 9 . , w.h.6.T S.).H.H.|.].'.'.].|.H.).).S.G 6.h.w., . 8 x M ",
"u @ $ S I D : ~ i.r.m.H.]..X.X.X.X.X.X].H.m.y.i.~ : G I S $ # M ",
"e @ , ) ,.^ S R @.Q U | F.[.|. X.X|.[.F.| I / @.J S ^ ,.) > # M ",
"7 V e.p.3.^ S J @.Y ' <.0.G._.}.|.).G.0.} } / @.R S ^ 3.p.q.+.7 ",
"7 V N.R.r.K * ! e.( } 1.8.x.S.).).S.x.8.1.] ( e.~ * K r.R.N.V 5 ",
"u 5 c.~.P.*., W u.i.f.j.j.j.5.n.n.5.j.k.j.f.i.u.! , *.C.~.c.7 a ",
"r r w 6 0 +.R ! e.( } 1.8.g.9.2.3.5.g.8.1.} ( e.! R +.6 6 p s a ",
"r u a q o ; ; ! e._ ' <.1.5.g.j.j.g.5.<.1.} _ e.! ; ; o q a a d ",
"e e t q o % * J O.Y ] <.<.1.<.p.p.1.1.1.<.' Y O.J * - o q x z s ",
"a e w r 6 + $ J O.Q Y ' 3.1.1.p.p.1.3.1.' ^ Y O.J & + e z z s x ",
"a p w w e w # + 3 O.-.f.a.a.a.h.a.a.h.h.t.-.O.3 @ # a l s l x M ",
"l a p u e i p i r 5 1 0 2 2 2 2 0 0 0 0 0 5 5 a f l l f a l x m "
};
