/* XPM */
static char *result[] = {
/* columns rows colors chars-per-pixel */
"32 32 122 2 ",
"   c #383230",
".  c #423B38",
"X  c #5E4C35",
"o  c #5F4E3A",
"O  c #614E37",
"+  c #614F39",
"@  c #625037",
"#  c #64523B",
"$  c #69563E",
"%  c #6B583F",
"&  c #4D4B4A",
"*  c #524845",
"=  c #645543",
"-  c #695642",
";  c #665846",
":  c #6C5A43",
">  c #63554A",
",  c #665A4B",
"<  c #6B5D4C",
"1  c #715E46",
"2  c #715F49",
"3  c #635651",
"4  c #685751",
"5  c #645A54",
"6  c #6A5D53",
"7  c #655C59",
"8  c #695E5B",
"9  c #736046",
"0  c #73624B",
"q  c #676057",
"w  c #6C6155",
"e  c #6B625D",
"r  c #756654",
"t  c #796752",
"y  c #7A6955",
"u  c #72645F",
"i  c #736A5E",
"p  c #7A6C5C",
"a  c #7F715D",
"s  c #666261",
"d  c #6A6462",
"f  c #6D6964",
"g  c #6D6B6B",
"h  c #716764",
"j  c #746B65",
"k  c #7B6F63",
"l  c #726E6B",
"z  c #777067",
"x  c #787167",
"c  c #74716D",
"v  c #757473",
"b  c #7A7675",
"n  c #7C7976",
"m  c #787778",
"M  c #7D7C7B",
"N  c #81715E",
"B  c #837462",
"V  c #8B7167",
"C  c #8A7B67",
"Z  c #84766D",
"A  c #8A736B",
"S  c #847A6C",
"D  c #937461",
"F  c #817E7D",
"G  c #897C78",
"H  c #85817E",
"J  c #8D837C",
"K  c #918575",
"L  c #90827D",
"P  c #998279",
"I  c #988C7E",
"U  c #A68674",
"Y  c #848383",
"T  c #898685",
"R  c #8F8881",
"E  c #888788",
"W  c #8C8B8B",
"Q  c #908F8F",
"!  c #9F8E88",
"~  c #95928E",
"^  c #949393",
"/  c #9A9695",
"(  c #9D9B9B",
")  c #A38D85",
"_  c #A19687",
"`  c #B39488",
"'  c #B79B8F",
"]  c #A59B97",
"[  c #A19E9E",
"{  c #A1A09E",
"}  c #ACA39F",
"|  c #B4A29B",
" . c #A4A3A3",
".. c #AAA7A6",
"X. c #ABAAAA",
"o. c #B7A9A4",
"O. c #BAAAA4",
"+. c #B0AEAE",
"@. c #B6B0AD",
"#. c #BDB2AC",
"$. c #B4B4B4",
"%. c #BDB4B2",
"&. c #BCB8B7",
"*. c #BBBBBB",
"=. c #CFA695",
"-. c #D4AB9B",
";. c #DBAF9D",
":. c #C7AFA6",
">. c #CAB0A7",
",. c #C5B0A9",
"<. c #D0B8AF",
"1. c #C4B6B1",
"2. c #CBBBB5",
"3. c #EBBEAC",
"4. c #D5C2BA",
"5. c #EACABE",
"6. c #C4C4C4",
"7. c #CBCBCB",
"8. c #F2D2C6",
"9. c #F5D6CB",
"0. c #F5D8CD",
"q. c #F8DACF",
/* pixels */
"# % : % 1 - # # X X X o @ # # @ # @ @ ; w i z x x n x w , $ # # ",
"$ - : : $ $ # + X X X o o # $ # # # r H W W W Q Q E M f w ; $ $ ",
"% : 1 : - # # + X X o o # o # ; 6 e M E ^ Q W W Y v r 0 : $ $ $ ",
"- : - - = = # # # o # # # # e M E W Y E ^ Q F m c 6 % : % $ $ $ ",
"# - = # + + + = # # # $ # q M W Q Q /  .{ Q Y m q @ $ $ $ # $ $ ",
"+ + # + + X X O # # # # 6 v F M Y (  .X.( M m c q $ @ % % % $ $ ",
"+ - - $ + O X X @ # # = b E W Q { X.X.X. .^ E M f : % % % % # # ",
"+ $ - - $ # + O # # @ , Y ~ ^ ( {  . .{  .{ { ^ l 2 : : : : ; : ",
"+ # $ % % $ # # # - w g m F E Q ~ ^ { ..{  ...{ H c f < : : 1 : ",
"$ $ % % % # @ ; e b M T ^ ( ( { {  . .{ { ( ( / E M m v f < : : ",
"1 1 1 % # # w b Y W W ( .. .] / ] } | >.,.X.X.+.X.( M m v f < % ",
"9 9 1 % $ 6 M E W W W / / | >.5.5.8.9.4.o.#.%.$.*.*.Q F M v q $ ",
"1 1 0 t t p b n c H ' P J 5.9.9.9.0.q.! &   :.#.*.X.n f f < $ $ ",
"% 9 N V C I K B 0 ~ >.A * <.2.1.1.1.4.) . & O.@.$.+.I r : : $ # ",
"$ t C N J +.#._ N S  .X.} &.+.&.2.+.$.$.&.*.*.X.*.6.$.( a : : : ",
"1 N N p 6 h L Z N p { X.&.6.6.6.6.6.7.6.7.6.$.X. ./ X.X.K : 2 2 ",
"1 t N V p 4 > k S J  .X.X.*.7.7.6.7.6.6.6.*.+.[ T 7 l / R 1 1 1 ",
"$ - 2 u N 6 4 2 y p / ^ X.*.6.7.&.*.*.7.*.X.Y l b h j l ^ 2 : < ",
"+ + + - - ; > 4 2 : p Y ( $.$.6.*.*.*.6.$.E n l n ^ / H h < 1 < ",
"$ $ - - - - D =.U z v W  . .X.*.$.$.$.*.$.E F T G H M ^ v 4 2 1 ",
"1 1 : - - - U 3.-.E W H Y M [ X.+.X.@.$. .Y n ) ;.| F ^ / 8 < : ",
"1 1 1 $ # # j I V n M v c g W Q ^ X. .W M b v G ` -.) M E l > : ",
"% % - $ # ; v b 5 f v e 7 s E W T ~ Y b n v v H G l b v v d > 1 ",
"$ $ % 1 < v M M j 7 g 7 7 g Y ^ W c v Y W Y v v v d g v v e > 1 ",
"$ $ $ : w v l f d 4 7 7 7 f M E M v m M ( E Y F v s 7 g g 7 > ; ",
"# $ - # q q = 6 e 3 4 5 7 g F Y Y g Y ^ ..E m W M f 7 s s 7 > # ",
"O # # # = 5 e d q 8 3 5 s m Y M E m F W ( ( v Y Y v e 7 5 7 q = ",
"O @ # > 8 8 7 e j f 3 5 v M Y v W Y M Y W X.E m E M g 7 5 7 f , ",
"# # 5 e 7 7 d h g q , 5 c n Y v ^ ( ( ^ ^ ..( F M M c e 3 5 3 = ",
"; 5 5 > = = > = = @ o > = f v v ^  . .( J H Y m c f < : > 3 = = ",
"> ; - % $ # O o X X @ o o ; < , w w w < ; 2 < < ; ; : : = > # - ",
"- $ $ % $ # @ O X o o @ # @ $ # @ @ @ # $ % $ # @ @ # $ > - $ $ "
};
