/* XPM */
static char *_d6249b7ce5843dfa3d133a8ea2667aaU3BOjYgrCTmn7zC6[] = {
/* columns rows colors chars-per-pixel */
"32 32 73 1 ",
"  c #56442E",
". c #5A4732",
"X c #5D4B34",
"o c #5E4D3A",
"O c #614E36",
"+ c #614F39",
"@ c #635037",
"# c #65533B",
"$ c #68553C",
"% c #69573D",
"& c #6A563D",
"* c #69553E",
"= c #68573E",
"- c #68563F",
"; c #6B583D",
": c #6B583F",
"> c #6D593E",
", c #6D593F",
"< c #6D5A3F",
"1 c #655440",
"2 c #665440",
"3 c #665540",
"4 c #675540",
"5 c #675542",
"6 c #685740",
"7 c #685741",
"8 c #685742",
"9 c #675845",
"0 c #6B5943",
"q c #6B5A43",
"w c #6E5940",
"e c #6C5942",
"r c #6C5B43",
"t c #6E5A42",
"y c #6F5C41",
"u c #6D5C43",
"i c #6F5D43",
"p c #6A5944",
"a c #6A5946",
"s c #6C5B44",
"d c #6C5C45",
"f c #6F5D45",
"g c #6E5D49",
"h c #705D41",
"j c #715E42",
"k c #725E44",
"l c #705C46",
"z c #715F47",
"x c #725F46",
"c c #725E47",
"v c #715F49",
"b c #705E4A",
"n c #736045",
"m c #726046",
"M c #736047",
"N c #746046",
"B c #736048",
"V c #73604B",
"C c #73624A",
"Z c #746248",
"A c #756249",
"S c #75634A",
"D c #77634A",
"F c #71604C",
"G c #77634C",
"H c #77644C",
"J c #79654D",
"K c #79664D",
"L c #78664E",
"P c #776550",
"I c #796750",
"U c #7C6A51",
"Y c #7D6A51",
/* pixels */
"#yes#XX+#X###y>@O-##@06--#4bbs1b",
"-e84#.XO-4-O:n-@-ce-#00###1bkeh5",
":B04#.ooO#OXOKD#DNe-:##@#;-kDew#",
"004####9#OOX@n>o0h$-#@@@;0$>;ck8",
"#-++#4####OO>ee@@###:OX@#+#>-#e#",
"o#+XX#1###O#ceDe@e0-##@@#@#O--##",
"+a#OX##o####8ckk>0:OyDa-O#;#;ce#",
"#0--@######oO:-kyynanny#XOO-eeke",
"+#h-+#+-w*++O$O#d6ddiin@@@:y0aLf",
"eh>@+k;2+2*###O-y#6drii=>>BBnfSn",
"D>#@<c;-OOO.OO-ef66=y<#O#->nUc00",
"GD0>DJ>-OXOO-;-bya+#dn=#-#:>0#-n",
"0cese8;-OXOOlb2bfga#0=r#=yyr#@@-",
"@0h8#O-...+#5kPbHne#@mm6rZn#:#0n",
"@>c>@OO.XO#+#555HBnBrrnIr:X@:@#H",
"e@-hOXO.OX22151#fSfBvZZLyr@%-@rL",
"s1a4.+-#  O84-##fc:BBnBBfa:nn0yZ",
"#++++0>-...#oX#:ffeagBn4#0#0IU0B",
"O+55eDc:@..####>0dngBgB9###dffO#",
"ska4g0e-oX.X$-$c0gPBFfg4-0#4+=#y",
"bc8eHH8#oo.+$#-c0d8aegy:#=yBFd0U",
"chOO-e#-#oXXXO--044sfe>#60aBULyf",
"-eeO#e:##@##@#@#f4an0>e#yrnZBnUZ",
"&-k8o#@:f:-XO#o-0#00-#h#:##y0mUm",
"#;e8####00-##$#0-#keesk#XXX#nnLf",
"#-##+O##----;e>0>eh+ec21#=0=<Sf0",
"O#X.o###00##c>c#Ohk5###+-@##:>:#",
"O$+X###s=##O#;0####es++#:@#:-:n>",
"0:#oOO#-#@@Oof0@>>---O-#0-0-0BH4",
"6h-#O.XO@@OXOHn#kh>#;;e;-0-dDfaa",
"=:-#OXOO#::@#0#@#>e-;-h-8-6vfa0g",
"#:e-#Oo+#X@##->@O-@#O;-#-#6FFagP"
};
