/* XPM */
static char *_3530_b8b57344556f01ad2ee6d7b3f50f192625029e9ade21039a162368d0471d79fc[] = {
/* columns rows colors chars-per-pixel */
"32 32 77 1 ",
"  c #5E4B35",
". c #5F4E39",
"X c #614E36",
"o c #614F39",
"O c #635137",
"+ c #65523B",
"@ c #69563E",
"# c #6B583F",
"$ c #665540",
"% c #695741",
"& c #6D5A42",
"* c #6F5D49",
"= c #715E46",
"- c #715F49",
"; c #736047",
": c #74624B",
"> c #766550",
", c #7B6A56",
"< c #7C6D5C",
"1 c #7F715F",
"2 c #83735E",
"3 c #827464",
"4 c #847769",
"5 c #877A6A",
"6 c #8B7D6D",
"7 c #8E8174",
"8 c #95897E",
"9 c #998C7E",
"0 c #968D85",
"q c #9C938B",
"w c #A49A8E",
"e c #A29B98",
"r c #A99F9A",
"t c #ADA295",
"y c #A6A09D",
"u c #AEA59B",
"i c #ABA5A4",
"p c #AFAAAB",
"a c #B0A7A3",
"s c #B1ACAE",
"d c #B8AFAC",
"f c #B3AFB1",
"g c #B6B1B3",
"h c #B8B3B5",
"j c #BBB6B9",
"k c #C1B9B4",
"l c #C1BBBC",
"z c #BFBEC4",
"x c #C3BFC3",
"c c #C7C0C2",
"v c #C7C6CF",
"b c #D2CDC8",
"n c #C7C7D0",
"m c #CBCBD5",
"M c #D0CDD3",
"N c #CFD0DC",
"B c #DBD7D6",
"V c #D1D2DE",
"C c #E2DFDE",
"Z c #D4D5E2",
"A c #D7D8E5",
"S c #DADAE5",
"D c #DDDDE9",
"F c #E1DEE7",
"G c #DFE0E9",
"H c #E4E1E0",
"J c #E4E3EE",
"K c #EBEBEF",
"L c #E6E5F1",
"P c #E8E6F3",
"I c #ECEAF7",
"U c #EEEDF9",
"Y c #F0EFF9",
"T c #F1F1F6",
"R c #F4F4FA",
"E c #F8F7FB",
"W c #F9FAFD",
/* pixels */
"@#&&O  .O.oO@&#OO@+++&%@@+%*-***",
"@&&&O. O+OO+@&#OO@$++%%@@@%*-&%*",
"@&&$+  .+@@+@##O+&&+@%&O++%*=&%%",
"@&%+O  .+@+o@=#@&=&%@%%++@%*=&%%",
"@*&$o  .++OXO-=#&=&@@@@++@@=*&&@",
"&*%$+...o+o O:-%==@@@+OO+@@==&#@",
"&%$$$o.$+XX 7bg-=5:++ooO@@@&#=&#",
"%%$.++$$OXX:CWEr0mi*+XoO%+@###&@",
"%$o$+++@++XwEYEFnZm3Oooo+o+@@@%%",
"++o.o@+$+o+lRIRUANV0Oooo+o+@@+%+",
"oo..oo@o@2uKRUUIANVe@OXo+o++@@++",
"o$o Xo+o,HWWRIUIDZDs:4=o+o++@%@+",
"$$oX ++X9ETREUIIPTEjaNi#O+@@&&%@",
"$$@oXo+XtEIIUUIIYETFSKN2XO+@%&&@",
"o%%+oOO+9TIIIIIIURYPPEFqXXO@##&&",
"+%%@++@O9EUIIIIIUTUPTYJdOXO###==",
"O@=Ooo+:vRRIIIIPIUIUUULn<oO&%#:=",
"O##@o@o8LIIIIIRRRUIUYILNz0#===:=",
"##&@@%@yUIIIITWWWPPIUIPJZn6-==;=",
"###OO=7BUIIIIRWWEPLIIIIIDNs::--=",
"=##@#2HWTIIIUWRUUTPPUIIIJVc,>-==",
":#@#&tEUYIIIUWUPUUPIIPJIDKV5;=##",
"-=2kfkUIIIIIUWUUTPJUPAZALEUq&%@&",
"2>uIPLIPLIIIPRRUPSSPDNNSTYYMq<%=",
"6aFIIYUFALUULGUUGZZSZZZSDJUIAz07",
"*3qxxlhsppgggfjjgffssffssgjjy1**",
"@&&=$%%o...+**>>>:&$$=;=&;;&#+@&",
"+#&#+oo  ..+$$**:=&##&;=&=&+#+%=",
"@###+XXX  .+$$&&;=&&#=:;&#@+++#:",
"@###OXXX .++$$$$::::&=;>=#+O+O#>",
"@O@#  X  .++$$$$=;&:==:>=#+O#O#>",
"#@@@  X  .+$$+$$=;&*==::=#+##O#:"
};
