/* XPM */
static char *_113_40892cbbd0e3ee679f9442ae11c028bebe622d31c2a9c2dc50d9e6e0325e545c[] = {
/* columns rows colors chars-per-pixel */
"32 32 119 2 ",
"   c #4B210D",
".  c #53250F",
"X  c #462412",
"o  c #492616",
"O  c #5B2A12",
"+  c #4A301F",
"@  c #632D13",
"#  c #693115",
"$  c #66351A",
"%  c #733517",
"&  c #773918",
"*  c #7B3B19",
"=  c #4F3021",
"-  c #4E3C2D",
";  c #583828",
":  c #6C3E22",
">  c #56412F",
",  c #584637",
"<  c #5E4C35",
"1  c #574B3A",
"2  c #5C4D3A",
"3  c #5F513F",
"4  c #694227",
"5  c #67452A",
"6  c #7A4221",
"7  c #614F37",
"8  c #614F39",
"9  c #764F32",
"0  c #65533B",
"q  c #69563E",
"w  c #6B583F",
"e  c #7C5030",
"r  c #70563B",
"t  c #4D4D4B",
"y  c #544D43",
"u  c #514E4B",
"i  c #5E5140",
"p  c #55524D",
"a  c #5A534B",
"s  c #4F4F50",
"d  c #555454",
"f  c #5A5754",
"g  c #595857",
"h  c #575758",
"j  c #5C5C5C",
"k  c #645543",
"l  c #6A5740",
"z  c #6C5A43",
"x  c #6D5D4A",
"c  c #705E46",
"v  c #715F49",
"b  c #675D51",
"n  c #736047",
"m  c #74624A",
"M  c #79664D",
"N  c #6C6358",
"B  c #736451",
"V  c #786955",
"C  c #736759",
"Z  c #7A6E5D",
"A  c #5F6060",
"S  c #646464",
"D  c #686766",
"F  c #6E6A64",
"G  c #676868",
"H  c #6B6B6B",
"J  c #726C64",
"K  c #736F6B",
"L  c #777066",
"P  c #7D7162",
"I  c #7C756D",
"U  c #6F6F70",
"Y  c #737373",
"T  c #7B7B7B",
"R  c #87411D",
"E  c #8B441E",
"W  c #8E4721",
"Q  c #904720",
"!  c #984C23",
"~  c #9E5126",
"^  c #865C3B",
"/  c #A5572A",
"(  c #A65A2D",
")  c #A65E32",
"_  c #AF6131",
"`  c #B76C3C",
"'  c #996843",
"]  c #AE6E41",
"[  c #B77447",
"{  c #BD794A",
"}  c #867F77",
"|  c #8E867A",
" . c #928A7F",
".. c #838383",
"X. c #8C8985",
"o. c #8C8C8C",
"O. c #938C84",
"+. c #9A948D",
"@. c #949494",
"#. c #9F9991",
"$. c #9B9B9B",
"%. c #A29C95",
"&. c #A5A09B",
"*. c #A5A5A5",
"=. c #ABABAB",
"-. c #B4AFA8",
";. c #B5B2AD",
":. c #B4B4B4",
">. c #BEBBB7",
",. c #BBBBBB",
"<. c #C0BDBA",
"1. c #C2C0BD",
"2. c #C4C4C4",
"3. c #CCCCCC",
"4. c #D4D4D4",
"5. c #D9D8D7",
"6. c #DBDBDB",
"7. c #E3E3E3",
"8. c #E9E9EA",
/* pixels */
"0 0 7 0 8 8 w M C J &.3.3.<.%.Z q l B x l 0 q 0 l z v v c z x c ",
"8 0 q 0 8 Z -.3.4.6.8.8.8.7.7.3.;.;.2.<.&.P x 0 k z v c z l l l ",
"0 2 0 8 0 >.8.8.8.8.8.7.7.7.6.6.6.6.7.6.6.4.:.} q l c v c w l q ",
"0 0 8 < Z 5.8.8.8.8.7.7.7.6.5.4.4.4.6.6.4.4.3.:.C q l l w c z q ",
"0 0 q | 3.7.8.8.7.7.7.7.6.4.4.3.4.4.4.4.4.3.,.:.X.x q q q w q 0 ",
"0 q #.5.7.8.8.7.7.7.6.5.4.3.3.3.3.3.3.4.3.1.:.=.$.o.F k q q q 0 ",
"< x 3.7.7.7.7.7.7.6.5.3.3.2.2.2.3.3.3.3.1.:.:.*.$.o...b z z l q ",
"0 Z 4.7.7.7.7.6.6.4.3.2.2.2.2.3.2.3.2.2.,.:.=.*.$.o.X.K l c z l ",
"V ,.7.7.7.7.6.6.4.3.3.2.3.3.2.2.2.2.1.,.:.:.=.$.@.o.o...F x m z ",
"%.7.7.7.7.6.6.4.3.3.3.3.4.3.2.2.2.,.,.,.:.:.*.$.@.o.......N n m ",
";.8.7.7.6.5.4.4.3.4.4.4.4.2.,.:.:.,.,.,.,.:.*.o.o.o...o.o.J l x ",
" .6.6.5.4.4.4.4.4.4.4.3.2.2.:.:.:.,.2.2.,.*.@.o.o.o.o.o.X.Y k w ",
"P 4.6.5.5.5.6.5.4.3.2.2.2.,.:.:.:.2.2.,.=.@.o.o.o.o.o.X.T U f q ",
"+.6.6.5.6.6.5.3.2.2.2.,.,.,.:.:.2.2.,.=.$.@.@.o.o...T Y H G g k ",
"O.6.5.5.5.4.3.2.,.,.,.2.,.,.,.,.2.,.=.$.@.@.$.$.X.Y U H H D j a ",
"%.4.4.3.3.3.2.,.,.,.,.,.,.,.,.,.=.$.@.o.@.$.@...T U H G D S j a ",
":.2.2.2.2.1.,.,.:.,.,.:.:.:.:.=.@.o...o.o.o...T U H G D S j h t ",
"*.,.,.,.,.,.,.,.:.:.=.=.*.*.@.o...........T Y H D S S S j d d t ",
"} :.:.:.:.:.:.:.:.*.$.$.o...T T T T T T T H D S j j A j g d d y ",
"k X.:.:.=.:.:.:.*.$.o.T T U Y U H H U U Y G A g g j S j d u y q ",
"2 i I &.=.=.=.*.@...T H D S G G S A H Y H A d d h j j j d k z M ",
"0 2 < k L X.@...T G A j A S S S S H U H S h s d j j j d k z z m ",
"0 0 2 0 < 0 N D A g g j S S S D G H G A d t s d h d a x n m M n ",
"l q q 0 0 7 < 3 y p h A A A S S A h g d t t t t y 0 z z n M M m ",
"l x l w 8 8 8 0 0 8 0 3 i , ; = o X - i 1 1 < < 7 q l z n M m z ",
"q q l l l q w l w w x q w 5 * & & # ; z q 0 0 0 0 q w z n M v z ",
"0 l l l q q z z z w q q q 9 ) ( / W 4 0 0 0 0 0 q q q w n w w w ",
"l q l 0 8 0 q w z w 0 0 0 ^ [ ` _ ! : 2 0 0 0 0 0 0 q q w w w w ",
"q 0 0 8 7 7 8 l l w 0 q 0 ' { ` / E $ < 0 l l 0 w q q l z n z l ",
"0 0 8 7 7 7 8 c n w 0 z r ] ` / Q & O > 0 l l l q q x v m v z z ",
"7 0 0 0 7 7 0 z w q 8 0 e _ ~ R % @ . + q q l q q x z v x k x z ",
"7 0 0 0 0 0 0 w q q 8 < 6 W * # O .   X 7 q q 0 0 c m x x x x m "
};
