/* XPM */
static char *_6319_6c18dd783418d200b5d012302ed24d4f7e00f43840d61b3fe5121ccb99e357dc[] = {
/* columns rows colors chars-per-pixel */
"32 32 234 2 ",
"   c #302826",
".  c #5C5C59",
"X  c #5A574D",
"o  c #695D59",
"O  c #69584E",
"+  c #64625C",
"@  c #74685E",
"#  c #5C5D64",
"$  c #485977",
"%  c #5D6369",
"&  c #596574",
"*  c #4B6777",
"=  c #686668",
"-  c #756B66",
";  c #78736D",
":  c #666D72",
">  c #746C70",
",  c #66757A",
"<  c #797675",
"1  c #787978",
"2  c #827978",
"3  c #827470",
"4  c #89857F",
"5  c #39718C",
"6  c #4B7E96",
"7  c #5D7C93",
"8  c #597B99",
"9  c #567287",
"0  c #647D8A",
"q  c #787D86",
"w  c #657D93",
"e  c #407CAE",
"r  c #887D83",
"t  c #5D8494",
"y  c #67828E",
"u  c #7D838C",
"i  c #78848A",
"p  c #68879A",
"a  c #778894",
"s  c #7A929D",
"d  c #4A87AB",
"f  c #5689A8",
"g  c #4787B6",
"h  c #558DB6",
"j  c #5A92BD",
"k  c #6B8BA6",
"l  c #6A92AB",
"z  c #7895AA",
"x  c #6693B5",
"c  c #7C9DBE",
"v  c #6CA0B6",
"b  c #0F8CD4",
"n  c #128AD1",
"m  c #1C94DB",
"M  c #168FD4",
"N  c #3D93CB",
"B  c #2D9ADC",
"V  c #2597DB",
"C  c #389AD7",
"Z  c #2C8CCE",
"A  c #3DA1DD",
"S  c #0C97E7",
"D  c #1A9AE7",
"F  c #079BF3",
"G  c #149DF2",
"H  c #068EE2",
"J  c #249CE4",
"K  c #229DEB",
"L  c #2D9FED",
"P  c #269AE2",
"I  c #349CE1",
"U  c #3C9DE3",
"Y  c #359DEB",
"T  c #269EF4",
"R  c #1DA3F8",
"E  c #0CA0F6",
"W  c #27A0ED",
"Q  c #33A2EA",
"!  c #3DA3EB",
"~  c #39A5E7",
"^  c #26A1F3",
"/  c #23A4FA",
"(  c #2AA5FA",
")  c #2EA8F8",
"_  c #34A5F3",
"`  c #3BA4F1",
"'  c #34ABFD",
"]  c #38A8FA",
"[  c #39B4FF",
"{  c #488BC2",
"}  c #4898CB",
"|  c #5498C8",
" . c #4D9EDB",
".. c #499CD5",
"X. c #549DD5",
"o. c #669CC8",
"O. c #7A9EC2",
"+. c #48A2DB",
"@. c #54A3DA",
"#. c #59A8CF",
"$. c #67A4CC",
"%. c #79A7C8",
"&. c #7AB3CD",
"*. c #65A6D4",
"=. c #78B5DB",
"-. c #78A9D1",
";. c #439DE3",
":. c #43A4EA",
">. c #49A5E7",
",. c #55A9E7",
"<. c #59B3EC",
"1. c #4CAEF4",
"2. c #44A9F4",
"3. c #53ADF3",
"4. c #50AFFF",
"5. c #4BB3FB",
"6. c #55B3F2",
"7. c #54B9FE",
"8. c #58B6F8",
"9. c #47B0E9",
"0. c #63ACE4",
"q. c #67B7EB",
"w. c #7CBDEE",
"e. c #77BDE9",
"r. c #6DBCF4",
"t. c #63BDFD",
"y. c #63BBF5",
"u. c #7DBDF4",
"i. c #70BCFA",
"p. c #57C7FF",
"a. c #6BC2FE",
"s. c #69C6FE",
"d. c #73C4FD",
"f. c #7ACCFF",
"g. c #77C5F8",
"h. c #7ACAF5",
"j. c #848B8C",
"k. c #888786",
"l. c #948887",
"z. c #9B968D",
"x. c #868B95",
"c. c #948E94",
"v. c #859399",
"b. c #92939C",
"n. c #979695",
"m. c #8E908F",
"M. c #A59B9C",
"N. c #B1978F",
"B. c #9DA29B",
"V. c #A7A19B",
"C. c #8294A6",
"Z. c #9B99A3",
"A. c #809FBB",
"S. c #A69FA1",
"D. c #97A4A4",
"F. c #8AA7B7",
"G. c #96A9B7",
"H. c #86A4AE",
"J. c #A6A5AB",
"K. c #A9A6A6",
"L. c #B5ABA8",
"P. c #B7B2AB",
"I. c #AAACB4",
"U. c #A0A7B9",
"Y. c #B1AEB3",
"T. c #AAB6B6",
"R. c #BBB3B3",
"E. c #BDBDBC",
"W. c #B5B8B9",
"Q. c #D5BEB6",
"!. c #C3BFBC",
"~. c #CDC4BB",
"^. c #DDC4BF",
"/. c #85AAC6",
"(. c #84B5D4",
"). c #9ABBD6",
"_. c #88AFCA",
"`. c #B3BCCB",
"'. c #87BBE7",
"]. c #91BCE8",
"[. c #90BFF2",
"{. c #C3BEC2",
"}. c #89C3EB",
"|. c #98C6EB",
" X c #83C4FC",
".X c #84CAFD",
"XX c #8BCDFF",
"oX c #85C5F7",
"OX c #93CBF4",
"+X c #9BCCF5",
"@X c #98CAF7",
"#X c #82D5FF",
"$X c #8DD4FE",
"%X c #8CDFFF",
"&X c #9CD3FC",
"*X c #95DBFF",
"=X c #9BDCFF",
"-X c #95D3F9",
";X c #9ED0E7",
":X c #A4CDEB",
">X c #A7CBE6",
",X c #AAD4EC",
"<X c #A3CDF3",
"1X c #A6CEFA",
"2X c #ACD2F3",
"3X c #A4D2FA",
"4X c #ABD4FE",
"5X c #A2DAFF",
"6X c #ACDDFE",
"7X c #A8D7F5",
"8X c #B3DAF5",
"9X c #B4DCFF",
"0X c #BCDDFE",
"qX c #B4D7F7",
"wX c #B7D6E8",
"eX c #9DE2FF",
"rX c #A3E2FF",
"tX c #ABE4FF",
"yX c #ADEAFF",
"uX c #B7E4FE",
"iX c #BBE3FF",
"pX c #BBECFF",
"aX c #B3E8FD",
"sX c #C4C3C4",
"dX c #C9C7C9",
"fX c #D2C9C0",
"gX c #E7CAC5",
"hX c #E6D2CD",
"jX c #F1DCD7",
"kX c #C3E4FE",
"lX c #C4EAFF",
"zX c #CBECFE",
"xX c #D7F8FF",
"cX c #CBF1FF",
/* pixels */
"+X3XtXh.X.oX:XlXkXaXpXXX*.XX*X%X_ ( T K G E F F S b s.eX+X2X>XqX",
"OXOXeXg.N r.5XpX6XOXg.r. .r.f.t.P T ) K D E E F S n <.$X5XuX9X2X",
"oX.Xf.N C ~ s.eX$Xe.C ~ I 2.7.5.D W W J m D D S b m p.#X=X5X4X3X",
"g.f.+.M m D m 9.s.f.B m L _ _ ] ) ^ J P W P D D D ~ <.h.$X@X@X|.",
"h.g.C b H G D M ! p.5.J _ _ ^ / / R W B B B B B Z 7.d.i.'.[.1X1X",
"(.#X6.n R F R D J ' [ / Q ] W V V B C } } } N Z ;.d..X[.@XkX0X4X",
").rXXX>.) / G K D G ( ) Q ~ A N h l l z z l h { ,.i.[.'.4XzXkX0X",
"<XuXpX X7.L ) ^ ) R / [ 9.N g h p u m.m.i y g ..8.>.X.*.<XkXkXkX",
"3XiXpXyX9.~ ~ _ ( ' ' Y  .g k v.v.v.z.k., f +.Y ( ] >.{ '.kX0XlX",
"uXaX&X-X,.A 2._ ' [ ] ;.h p q m.B.K.z.< 0 f  ._ T T C g.}.2XuX9X",
"pXtXh.| C A ~ _ ` Y ;.| k x.n.K.T.T.M.c.i 8 X.;._ I r.rX7X>X,XaX",
"aXrX*X+.~ 5._ ! >. .| f s m.n.m.D.n.M.K.b.t | | ;.,.rXaXlX8X;X7X",
"7X3XtX0.` ] Q C | f t y a k.B.B.K.L.L.N.V.a 0 f h -.lXzXlXqX<X|.",
"&X X Xy.4.` ! } d k s D.V.V.V.V.K.P.L.M.K.K.v.w 0 z kXkXuXqX@X].",
"a.,.;.3.7.1...d l z n.l.N.^.^.hXjXQ.z.L.E.`.G.y w z iX8X9X1X|.].",
"7.! ;.1.6.r.$.O.l z J.3 N.gXgXgXhXl.  < W.T.D.a p >X8X0X9X<X].].",
"5.Y 2.6.q.o.).>X(._.G.c.S.R.R.R.R.Y.S.J.W.W.W.G.c -X9X3X&X|.[.[.",
"6.! ! 1.q.e 9 l -.&.G.T.`.sX!.fX{.dXdX`.P.n.D.G.(.eX-X'.@X<X4X<X",
"s.A +.<.8.#.6 5 #.&.H.D.T.dXfX~.sXdX!.L.z.; = q &.*Xe.w.@X1X9X2X",
"d.y.t.6.+.q.*.5 f x H.v.T.E.~.R.sXsXR.4 - 3 r q p =.0.g.[.4XqXqX",
"g.f.p.,.;.3.0.o._.z C.x.U.Y.!.R.R.!.K.4 3 4 r b.0 f ,.d.oXtX6X-X",
"g.$X>.C 4.3.0.-.`.Z.q u l.n.S.Y.Y.Y.n.; z.L.c.x.s 8 q.f.*X=X$Xg.",
"'.*Xy.:.2.2.X.x r - 2 < o 2 b.n.J.q < < 2 n.M.r 4 * X.t.a.6.:.I ",
"'.rXf.:._ :.| 7 1 O - o + 2 b.i 1 r k.< < < > > - , X.1.;.! W ^ ",
"w.eXf.C Q ;.h y i . + X + 1 v.q > k.l.4 1 : + = @ % | 2.:.Q ' ^ ",
"e.-XoX@.C } t , : # X X = i q q 1 n.V.< l.i . . o & { ;.I ~ ] T ",
"(.;XuXpX'.f % = = = O o > 4 < l.1 j.M.l.1 k., % o $ g ;.+.3.t.3.",
">X2XzX8Xc 9 . = : : # = q u 1 m.v.a v.I.i i i & # $ e ,.q.d..Xd.",
"<X0XqXk 7 y C.a v.H.C.* 8 w w G./.%.A.z w 9 z G.0 8 $.q.$XeXXXoX",
"+X1X>XF.).wXxXzXxXxXkXx | | x o.$.$.o.o.%.<X:XtXk c 3X}.&X&X}.w.",
"&X@X2X>XwX>X0XzXkXzXxX+XX.3.,.,.0.3.6.,.X.&X-X|.-.:XcXtX<X@X[.f.",
".X&X9X>X>X>X0X0XzXcXcXaX1.p.2.7.7.1.7.7.,.h.*XOX].].2X,X<XOXu. X"
};
