/* XPM */
static char *_6263_b4a5c634b651fbfe39bb142c56f17783893c79528376ce5369305b7d93514361[] = {
/* columns rows colors chars-per-pixel */
"32 32 142 2 ",
"   c #000000",
".  c #05060A",
"X  c #020809",
"o  c #130D06",
"O  c #130F09",
"+  c #16110B",
"@  c #18120A",
"#  c #141415",
"$  c #1C1812",
"%  c #171618",
"&  c #181618",
"*  c #1C1C1D",
"=  c #261D13",
"-  c #281D13",
";  c #211E1B",
":  c #2A2116",
">  c #24211D",
",  c #2C241A",
"<  c #342A1E",
"1  c #1F1E21",
"2  c #10192C",
"3  c #0F2226",
"4  c #152E34",
"5  c #15223C",
"6  c #18253E",
"7  c #1C3439",
"8  c #272321",
"9  c #2A2523",
"0  c #212528",
"q  c #2C2C2B",
"w  c #3D3225",
"e  c #3F362B",
"r  c #212734",
"t  c #232835",
"y  c #242A39",
"u  c #2F3634",
"i  c #26383C",
"p  c #2B393D",
"a  c #363439",
"s  c #3E3E3D",
"d  c #493927",
"f  c #40362A",
"g  c #443A2D",
"h  c #4C3D2A",
"j  c #433B30",
"k  c #52422E",
"l  c #41403D",
"z  c #554532",
"x  c #574835",
"c  c #5C4B35",
"v  c #5C4D3B",
"b  c #604E36",
"n  c #614F38",
"m  c #635137",
"M  c #65533B",
"N  c #69563E",
"B  c #6B583F",
"V  c #3B3E43",
"C  c #2A3751",
"Z  c #3F474C",
"A  c #315058",
"S  c #27436B",
"D  c #295068",
"F  c #40474C",
"G  c #4A474C",
"H  c #4E4C4E",
"J  c #565557",
"K  c #5A5A5C",
"L  c #675641",
"P  c #695740",
"I  c #6C5A42",
"U  c #6E5D48",
"Y  c #715E45",
"T  c #715F48",
"R  c #726047",
"E  c #746249",
"W  c #615E63",
"Q  c #45646B",
"!  c #5D676C",
"~  c #55637D",
"^  c #676269",
"/  c #6E6B73",
"(  c #736F74",
")  c #737075",
"_  c #71737A",
"`  c #79767A",
"'  c #7B7A7E",
"]  c #375590",
"[  c #3D5B94",
"{  c #6E778B",
"}  c #7F7A83",
"|  c #7A7E95",
" . c #4B75C3",
".. c #507AC9",
"X. c #837E86",
"o. c #77848C",
"O. c #7C868E",
"+. c #6A8D94",
"@. c #7D8891",
"#. c #7198A4",
"$. c #7496B4",
"%. c #4DA5B8",
"&. c #57A3B3",
"*. c #77B1BD",
"=. c #528ECF",
"-. c #508AD0",
";. c #5F89D9",
":. c #6D8AC7",
">. c #4EA8C0",
",. c #78BBCC",
"<. c #64BDD4",
"1. c #5CB7E4",
"2. c #67A2E5",
"3. c #60BFE5",
"4. c #65ACFF",
"5. c #5ECEE3",
"6. c #5FC2ED",
"7. c #61CEE5",
"8. c #62C4EF",
"9. c #64D3EA",
"0. c #6ED5E9",
"q. c #6FD8EE",
"w. c #79D3E6",
"e. c #73D9EE",
"r. c #72DDF2",
"t. c #85838B",
"y. c #88868E",
"u. c #878B94",
"i. c #898A93",
"p. c #879BA6",
"a. c #949BA3",
"s. c #979FA9",
"d. c #9AADB7",
"f. c #89B9C3",
"g. c #96B8C4",
"h. c #83C2D0",
"j. c #80DFF3",
"k. c #83E3F7",
"l. c #91E5F6",
"z. c #95EAFB",
"x. c #99EEFF",
"c. c #A4F2FF",
/* pixels */
"B P P N m c b b n M M M B B N M N N N B I k O       X X   $ x R ",
"I P P L M v b n M n M M B B N N N B B m z g a p p i 7 3 X O w x ",
"I P P N n v n M b M b b N B B I I Y I h - u +.f.f.*.&.[ 3   O $ ",
"I N L M M M n M M M b b N I B P I P c h u Q h.c.c.z.r.>.D 2 X   ",
"M L n n n M M M M m m M B I I B I h , a +.h.w.e.e.e.9.3.=.] 2   ",
"L M M n n M M M M M m M B I I I I h o y *.x.j.0.7.5.5.8.4. .6   ",
"L n M M n m M M M M M M N I I Y Y h o 4 &.k.z.l.0.5.5.8.4. .6   ",
"L L N M M n m M M M M M M N I I b h q A %.e.l.l.0.5.7.8.4. .6   ",
"N B N N M M M P N N M M M M P h , q ! #.<.7.q.0.7.5.5.8.4. .5   ",
"B B B B B P P M M M n n M M N h o 0 o.g.,.<.5.6.8.8.8.1.=.[ y @ ",
"Y Y N B I Y P N b b b b n N I h o 0 o.d.p.$.2.4.4.4.4.-.S t j z ",
"Y Y B N I Y B M b b b n M M z g q Z O.a.t.| :.;... . .[ r : z I ",
"I Y B B B P N M b b b M I b - q ! @.u.t.` _ { ~ C 5 5 t f k N B ",
"B N Y B M M n b b b n L h g q F @.s.y.) K H H l : o o - k B B I ",
"N N B N M b b b b M N h , q ! @.u.y.' K q # # > f k h k b N Y Y ",
"N N N N m b b b b h h d q G @.s.y.) K l > @ @ , x Y B N N B Y Y ",
"M M n L n M M M c d = q ! @.u.y.' K q > g x x x B I I I Y R Y Y ",
"N L L L M M P n d < ; V O.s.i.) K l > , v E U R P B P I R R Y I ",
"M P L L I Y I x - ; G ( t.i.' K q 8 g v U E U U P L B P B I N N ",
"P P P P T P x g q V / t.X.( K s * , v E U U I L P L N P I I B N ",
"Y P N P T c , q ! O.t.X.` K q > e x L U U I P L B B I Y R U R I ",
"Y Y P M c j q Z @.s.i.( K l * : x U I I I I B B L B I Y R E R E ",
"B B Y z : q ! @.u.y.' K q * w z M I I I I P P B B B Y Y E E E E ",
"N N z f 8 V @.s.y.( K s > : k B P I I I P I B B M B I I R E E E ",
"B z - 9 H ( X.i.' K q ; w z M B B B B I I P B N M M N I Y R R R ",
"z d 8 a / X.X._ K s * : z I P B B B B P I P N N m m m N I Y Y I ",
"O 9 H ( X.X.} K q ; w k M I B B M N P P P L L M M M N M B I I I ",
"  1 W y.X.) K s ; : k N B B B B N B N B L M v M M N N N B I I B ",
"  1 ^ y.} K q * w k c m N P B B B B B B B N M M B P P I I I I I ",
"  & G W J s ; - k N m m N B N B B B N N M B N N N P P I Y R I U ",
"  . % * * ; w k b M M m M B B m M B M M M N B N L P I I U U U U ",
"          + h M M M M M N M M M m M M N N M B B B L L U U U U U "
};
