/* XPM */
static char *_65ce38f7f0d4fa99bc673d6484ee465e6faJcPiBc6uLiy4[] = {
/* columns rows colors chars-per-pixel */
"32 32 145 2 ",
"   c #000000",
".  c #0B0501",
"X  c #0E0A04",
"o  c #0C0C0D",
"O  c #110A04",
"+  c #15110A",
"@  c #1F150A",
"#  c #110E11",
"$  c #121313",
"%  c #1C1914",
"&  c #19171A",
"*  c #19181B",
"=  c #22170B",
"-  c #241A0D",
";  c #241C12",
":  c #281F14",
">  c #211D1A",
",  c #2A2115",
"<  c #25201E",
"1  c #312518",
"2  c #392D1F",
"3  c #071025",
"4  c #061E22",
"5  c #071228",
"6  c #0C1C39",
"7  c #111F3A",
"8  c #1B2023",
"9  c #0D2A31",
"0  c #1C2333",
"q  c #11203C",
"w  c #183136",
"e  c #272724",
"r  c #292925",
"t  c #262728",
"y  c #272829",
"u  c #392E20",
"i  c #3E3224",
"p  c #3E352B",
"a  c #202736",
"s  c #2C3432",
"d  c #24363A",
"f  c #323436",
"g  c #3D3D3A",
"h  c #433624",
"j  c #4A3A25",
"k  c #413729",
"l  c #43392B",
"z  c #4E3E29",
"x  c #503F27",
"c  c #503F2A",
"v  c #4F402A",
"b  c #53432C",
"n  c #554532",
"m  c #594732",
"M  c #5D4B33",
"N  c #5C4D39",
"B  c #614E35",
"V  c #624F38",
"C  c #645137",
"Z  c #66523A",
"A  c #69563C",
"S  c #6C593E",
"D  c #373A40",
"F  c #383C41",
"G  c #253450",
"H  c #3D454B",
"J  c #2D4F57",
"K  c #22416B",
"L  c #244F68",
"P  c #4A464C",
"I  c #4D4C4D",
"U  c #555456",
"Y  c #58575A",
"T  c #5A5A5C",
"R  c #6A5741",
"E  c #6D5B42",
"W  c #715E44",
"Q  c #746046",
"!  c #766349",
"~  c #78654A",
"^  c #615E63",
"/  c #43646B",
"(  c #5D676C",
")  c #54637E",
"_  c #676269",
"`  c #6E6B74",
"'  c #736E74",
"]  c #747076",
"[  c #72747B",
"{  c #7A777B",
"}  c #7C7B7F",
"|  c #345491",
" . c #3A5B95",
".. c #2F7380",
"X. c #6E788C",
"o. c #7B7F96",
"O. c #4A76C4",
"+. c #837E86",
"@. c #77858D",
"#. c #7C868F",
"$. c #6A8E95",
"%. c #7E8992",
"&. c #7199A5",
"*. c #7597B5",
"=. c #4CA6B9",
"-. c #56A4B4",
";. c #78B2BE",
":. c #4F8BD1",
">. c #518FD0",
",. c #5F8ADA",
"<. c #6D8BC8",
"1. c #79B8C7",
"2. c #64BED5",
"3. c #5CB3E7",
"4. c #5CBDE2",
"5. c #67A3E6",
"6. c #65ADFF",
"7. c #5ECFE4",
"8. c #5ED0E4",
"9. c #61CFE6",
"0. c #62C5EF",
"q. c #64D4EB",
"w. c #6ED5EA",
"e. c #6FD9ED",
"r. c #7AD4E7",
"t. c #74DAEF",
"y. c #73DEF2",
"u. c #858087",
"i. c #85848C",
"p. c #8A848C",
"a. c #898A92",
"s. c #889CA7",
"d. c #959CA4",
"f. c #97A0A9",
"g. c #98A0AA",
"h. c #9BAEB8",
"j. c #8ABAC4",
"k. c #97B9C5",
"l. c #84C3D1",
"z. c #83E2F5",
"x. c #90E3F4",
"c. c #92E6F6",
"v. c #93EBFC",
"b. c #99ECFD",
"n. c #A5F2FF",
/* pixels */
"Q n +             O b W R S Q Q W W A A E Q ~ ~ Q E S S E E E W ",
"n i .   5 q 7 7 6 a k b C S S S W S A A W Q ! ! Q E S S E E E Q ",
"+ .   3 | O.O.O.O. .0 - b A A S W Q S S Q ! Q W Q W E S E W E Q ",
"    4 L >.6.6.6.6.>.K 0 p b M A E Q S S W Q W W E E S S E W W T ",
"  4 ..=.4.0.0.0.0.3.>. .0 - v Z S E A A E Q W E A A Z A S S E E ",
"  w -.y.q.9.8.9.8.0.6.O.6 . v S S S A A E E E E A C A Z A S R R ",
"  d ;.v.t.7.7.7.8.0.6.O.6 . v W S A Z A A R S A C C Z Z A R S A ",
"  d j.n.t.9.w.w.9.4.6.:.G % i m A S S S A A A Z C C V V A Z A A ",
"  d j.n.t.w.x.x.w.0.6.,.) g , , N E E E S Z S Z A C C Z Z Z A A ",
"X f $.l.r.z.b.c.t.4.5.<.X.I o X n ! Q E R S A A A A Z Z A A A A ",
"z l s / l.b.z.e.q.2.*.o.[ I o X n Q Q E E E S S E A Z Z Z S A Z ",
"R b = s $.1.-.=.2.1.s.u.{ Y r > p N E Q E R R S E E A Z Z Z Z Z ",
"S C b l f w 9 J &.k.h.d.i.' T g * , N ~ E R E S S S S A S Z S A ",
"A A S m - . . r ( @.@.#.a.a.} T 8 > p N A S E E S A A A S Z A C ",
"A R E A b j z j r 8 8 H %.f.a.] T g > , n W S S S A A A S S C C ",
"Z A E E S S S M : . . r ( %.a.a.} T t % i n C S A A C A S S A C ",
"Z Z A S S S W A b j z h t H a.d.a.] T g % ; b R S A A A S A Z C ",
"A A S S S S S S A A S b ; t ( i.a.a.} T y % u v C R S A A Z Z Z ",
"A S S S S W S A Z Z A B n k r H %.f.a.] T g % ; b E S S S S A Z ",
"A A A Z S A A C Z B V Z E m : : ( #.u.#.{ Y y % i b Z S Z Z A Z ",
"C A B B C C C C C C B B C B x h e F ` p.u.] T v % - b Z C C C C ",
"C C B B B B B C Z B B M M B A x = % P ` i.a.X.Y y % u v M C C C ",
"Z C B B C C C C A C B M M M B m h 1 % g #.g.a.] T g % @ v A C C ",
"C B C C C A C C A Z C M M M M m M j = r ( %.a.a.} T r @ 2 v M A ",
"M B V Z Z C Z C A Z A A C B B B V B n p y H %.d.a.] T g % - v C ",
"M B B C Z C C C C A A A Z C B B Z R E M : r ( #.i.u.{ T y % u j ",
"B B B B Z C B C C S Q S A C B B B A E R M l r D ` i.u.] T g % X ",
"B B B C B B B C A S S S A A C B B Z R W W m ; > I ` +.u.@.U $   ",
"R Z Z Z B V V Z A A A A S S A A Z Z R R S Z b h > f ` p.p.^ %   ",
"R R R Z C V Z Z A A A A S S S A A Z R R A A E b ; > I _ _ P #   ",
"A R R R Z V Z A A S S W W S A A Z A V R S S E V b h < & * #     ",
"A S E R Z Z Z A A S Q W S A Z Z Z Z Z R W W S S R c O           "
};
