/* XPM */
static char *_9064_b03dfbf3c9ab8e37636925ac64e4900f15ffbe13ed01b88581c3d69d7856437e[] = {
/* columns rows colors chars-per-pixel */
"32 32 234 2 ",
"   c #150D00",
".  c #1B1505",
"X  c #0C1416",
"o  c #291B03",
"O  c #351C04",
"+  c #240800",
"@  c #36220A",
"#  c #272215",
"$  c #33281B",
"%  c #3C311B",
"&  c #001424",
"*  c #021C29",
"=  c #122E34",
"-  c #282823",
";  c #31342B",
":  c #442500",
">  c #472B05",
",  c #4B3817",
"<  c #543D28",
"1  c #453B2B",
"2  c #7D5115",
"3  c #54452C",
"4  c #4D523C",
"5  c #69552C",
"6  c #785629",
"7  c #6B5334",
"8  c #7B6739",
"9  c #04384D",
"0  c #193D53",
"q  c #0D3A50",
"w  c #144459",
"e  c #304C52",
"r  c #0D5370",
"t  c #2C5667",
"y  c #2A647B",
"u  c #306172",
"i  c #555654",
"p  c #615B59",
"a  c #745B45",
"s  c #6F674E",
"d  c #556F73",
"f  c #6A6665",
"g  c #717978",
"h  c #697561",
"j  c #9D6216",
"k  c #AB6E1E",
"l  c #986D36",
"z  c #866431",
"x  c #A97A35",
"c  c #855513",
"v  c #94774A",
"b  c #8C6F47",
"n  c #A17544",
"m  c #BD8C4A",
"M  c #105E85",
"N  c #2E7191",
"B  c #4A7D90",
"V  c #3F859F",
"C  c #3B8CB4",
"Z  c #6E8080",
"A  c #4D8DAE",
"S  c #1586C0",
"D  c #1694DC",
"F  c #1291D9",
"G  c #2A8BC7",
"H  c #3994D4",
"J  c #369ADB",
"K  c #3D9CDA",
"L  c #3797D6",
"P  c #3E94C7",
"I  c #1999E7",
"U  c #0C9AE4",
"Y  c #2296E3",
"T  c #2B9BE2",
"R  c #2699E6",
"E  c #349CE3",
"W  c #3C9DE3",
"Q  c #359EEB",
"!  c #3C9FEE",
"~  c #269FF3",
"^  c #3A9EF3",
"/  c #1CA6EF",
"(  c #2CA3EC",
")  c #26A4EE",
"_  c #3CA3E4",
"`  c #34A3ED",
"'  c #3AA3EB",
"]  c #35A8EE",
"[  c #38A7EC",
"{  c #2CA5F4",
"}  c #2FA9F4",
"|  c #2EACFF",
" . c #28A3F6",
".. c #34A3F3",
"X. c #3CA5F3",
"o. c #33AAF5",
"O. c #3CAAF2",
"+. c #3BA5FA",
"@. c #34AAFD",
"#. c #3CACFB",
"$. c #30A7FF",
"%. c #35B2FE",
"&. c #3DB1FD",
"*. c #428CC3",
"=. c #4494CC",
"-. c #449BD3",
";. c #489BD6",
":. c #579ECC",
">. c #49A3DA",
",. c #59A3D5",
"<. c #68AAD7",
"1. c #6EB6D8",
"2. c #76B2D4",
"3. c #74A6CD",
"4. c #409EE6",
"5. c #44A2E3",
"6. c #42A5EC",
"7. c #43A9ED",
"8. c #4AAAEC",
"9. c #4BA5EA",
"0. c #5BABE3",
"q. c #56A9E8",
"w. c #5CB5EC",
"e. c #59B4E9",
"r. c #44ACF4",
"t. c #4AACF4",
"y. c #43AEFA",
"u. c #43A8F5",
"i. c #56AFF2",
"p. c #43B2FD",
"a. c #4BB4FD",
"s. c #48B5F9",
"d. c #5DBBFC",
"f. c #56B4F6",
"g. c #4AB0EE",
"h. c #65B1E5",
"j. c #7CBAE4",
"k. c #75B9E9",
"l. c #63BDFD",
"z. c #63BAF6",
"x. c #77BEF8",
"c. c #59C1FF",
"v. c #77C1EC",
"b. c #69C3FF",
"n. c #73C3FC",
"m. c #7BC5FD",
"M. c #75C9FF",
"N. c #7CC6F9",
"B. c #78D0FF",
"V. c #959895",
"C. c #96A29E",
"Z. c #899AA1",
"A. c #9CACB4",
"S. c #A2ADA4",
"D. c #A6B7BB",
"F. c #B7B8B2",
"G. c #87B8DA",
"H. c #ACBCC2",
"J. c #83BCEA",
"K. c #87BBE4",
"L. c #94BDE7",
"P. c #81BDF8",
"I. c #8BC6DE",
"U. c #9DC0DC",
"Y. c #A9C2CC",
"T. c #B1CAD7",
"R. c #8AC2EC",
"E. c #87C3E7",
"W. c #9DCDEC",
"Q. c #96C7EB",
"!. c #97D2EE",
"~. c #8DCCF2",
"^. c #83CDFE",
"/. c #8BCEFB",
"(. c #88C5F7",
"). c #92CBF4",
"_. c #95CDFD",
"`. c #97C6F5",
"'. c #84D3FE",
"]. c #8BD5FE",
"[. c #8CDCFF",
"{. c #94D2F2",
"}. c #9CD3F5",
"|. c #93D4FB",
" X c #9BD3FD",
".X c #95DBFF",
"XX c #9DDBFF",
"oX c #A4C6E9",
"OX c #AAD1E9",
"+X c #B8D6E4",
"@X c #A4CDF7",
"#X c #A7D3F5",
"$X c #ABD4F3",
"%X c #A4D5FC",
"&X c #ACD5FB",
"*X c #A3DBFE",
"=X c #ABDBFD",
"-X c #A4DAF4",
";X c #B3D5FB",
":X c #B4DDFD",
">X c #B8DBF4",
",X c #B6CFEE",
"<X c #9CE4FF",
"1X c #93E1FF",
"2X c #A2E3FF",
"3X c #AAE3FF",
"4X c #A8EFFF",
"5X c #B4E4FE",
"6X c #BCE5FE",
"7X c #B5ECFF",
"8X c #BCEBFF",
"9X c #B9E4F6",
"0X c #ABF4FF",
"qX c #B3F1FF",
"wX c #B2FCFF",
"eX c #C7D4D5",
"rX c #C9DDE5",
"tX c #CAE2EE",
"yX c #C5E4F5",
"uX c #C3E5FD",
"iX c #C6ECFF",
"pX c #CDECFD",
"aX c #C8E7F7",
"sX c #D5ECF9",
"dX c #CCF2FF",
"fX c #CDFCFF",
"gX c #D4F2FF",
"hX c #D1FAFF",
"jX c #DCFCFF",
"kX c #DEF4FA",
"lX c #EBFFFF",
"zX c #E4F8FF",
"xX c #F5FDFF",
"cX c #E1E5F0",
/* pixels */
"!.{.3XJ.,.x.%X6XyX9X4XB.h.B.XX]._ ` ..T S C C C C A 2.-XOX>X@X@X",
"~.~.2X1.=.z.<X7X3XQ.v.w.>.z.^.z.E T T K [.wX0X4X0XqX3XOX$X&X;X;X",
"N./.B.K T ] b.[./.k.;.J J O.d.t.I R L 4X3.e w w 9 & Y.aX#X=X%X`.",
"x.m.9.S D D Y 8.l.b.Q D ( ` [ r.X.G v.-X& * w e t q d jXE._.`.@X",
"x.x.J S F U U D u.c.p.I { } Y E =.<XjXe 9 y w V t * e zXG.L.W.W.",
"P.'.0.C D / / I R +.#. . .o.R G j.>X# X N r V A 9 0 * pXOX>X9X+X",
"J.*X~.>._ ( I R Y R ) } } } ~ G =XZ.O s y r C 1.M N & H.dX>XyX+X",
"}.3XqX^.f.Q  . .) } R } %.{ ~ L }.C.: v e r N N N y & A.dX9XaXtX",
"!.7XqX2Xw.4...$.{ } o.) | |  .J !.D.. l 8 4 e u t & d kXK.:X>XyX",
"5X5X X(.9.! ..$.+.o.o.) |  .@.L !.S.> m x 8 h d - e xXL.G.@XuX>X",
"aX=Xv.,.K X.+.+.+.O.( ( %. .T *.hXs c k 2 6 5 s # g kXoX&X%X$X;X",
"6X=X|.>.K ' +.^ +.' ` ] o.[ ;.=XeX> x j 2 > o o ; rXsXpX6X&XoX$X",
"%X=X<Xe._ [ ..+.X.! O.O._ >.}.tX3 z l 2 > $ A.+XhX9X+XsXiXoX$XoX",
"_.(.M.f.g.O...+.#.^ O.[ >.,.dXp 6 z @ 3 F.sX5X2.:.I.dX+XuX;XoXL.",
"x.q.5.r.c.&.o.| $.$.#.E L }.Y., l @ 3 lX$Xk.-.H ;.].8X>X$X@XL.L.",
"i._ E u.s.#.#.| $.$.o.8.,.jXs z 6 @ sXE.=.W 6.E ;.].5X;X:X@XL.K.",
"a.E 6.8.u.y.#.#.#.o.r.P :XS.: v @ V.iX*.7.] [ J i..X*XW.@XQ.Q.L.",
"a.' W r.y.#.#.o...r.>.~.kX% n 6   +X(.>.] %.` 6.b.]._.E.`.@X@XW.",
"b.7.` ] #.#.p.#.p.5.k.pX4 b 5 o +X7X,.r.&.o.] r.d.M.x.K.Q.#X$X$X",
"n.z.d.s.#.y.#.#.6.-.uXV., a   eX5X>._ ..o.] &.O.r.f.h.j.L.%X*X&X",
"E.N.c.&.O.r.p.g.5.R.sX$ a $ g fX=.7.p.o.&.&.r.r.' 8.i.N./.*X<XXX",
"E.'.5.E r.t.s.5.,.hXf < < - jX<.5.p.o.%.#.#.[ [ 7.5.i.m.]..XB.x.",
"I..Xw._ t.y.4.q.:XD.o 8   H.%X;.t...a.&.o.[ >.K 8.J 8.d.l.z.t.W ",
"I.{.'.5.! u.q.3XtX$ 8 o i jX<.8.t.y.p.] r.J e.M.z.5.t.u.5.Q Q R ",
"G..X'.H Q W k.dX. 7 o i sX X>.i.t.t.s.r.5.-.'.wX].>.6.u.^ ` ..~ ",
"j.|.v.,.K =.fXZ < @ f zX).0.8.t.t.g.O.[ b.1X2XqX<Xh.4.^ Q Q u.Q ",
"J.R.qX3X1.8XD.- # p zX2.;.t.a.y.r.a.s._ b.wX5X5X<Xh.W ^ 7.t.d.0.",
"~.=X5X6XhX+XX # p lX3.-.y.y.p.#.y.a.r.5.,.).3X$X).,.K 9.b.n.m.v.",
"-X-X8X,XzXD.X p xXtX<.>.#.&.&.a.p.p.#.8.;.~.-X#X).,.0.w.m..X/.R.",
"E.W.$X,XT.zXcXxXzXdXqXe.' y.#.+.p.a.a.8.h.2X=X-X).(. X(.|.XXE.K.",
" X=X&XoXH.rXtXsXgXuXiX X0.L d.s.u.a.a.8.0..X|.`.J._.7X*X X`.J.J.",
"(.`.=XoX$XU.;XuXuXpXgX=Xh.e.i.t.f.a.y.f.0.v. X`.J.(.%X X@X`.J.~."
};
