/* XPM */
static char *_7aa996c65f54587a60a006c87fb61b40r5J0uYkUixPSn7I[] = {
/* columns rows colors chars-per-pixel */
"32 32 145 2 ",
"   c #000000",
".  c #0B0501",
"X  c #0E0A04",
"o  c #0C0C0D",
"O  c #110A04",
"+  c #15110A",
"@  c #1F150A",
"#  c #061B1F",
"$  c #121313",
"%  c #1C1914",
"&  c #19181B",
"*  c #22170B",
"=  c #241A0D",
"-  c #241C12",
";  c #281F14",
":  c #211D1A",
">  c #2A2115",
",  c #25201E",
"<  c #312518",
"1  c #392D1F",
"2  c #061E22",
"3  c #071228",
"4  c #0C1C39",
"5  c #1B2023",
"6  c #0D2A31",
"7  c #1C2333",
"8  c #11203C",
"9  c #183136",
"0  c #272724",
"q  c #292925",
"w  c #262728",
"e  c #272829",
"r  c #392E20",
"t  c #3E3224",
"y  c #3E352B",
"u  c #2C3432",
"i  c #24363A",
"p  c #323436",
"a  c #3D3D3A",
"s  c #433624",
"d  c #4A3A25",
"f  c #43392B",
"g  c #503F27",
"h  c #503F2A",
"j  c #4F402A",
"k  c #53432C",
"l  c #554532",
"z  c #594732",
"x  c #5D4B33",
"c  c #5C4D39",
"v  c #614E35",
"b  c #624F38",
"n  c #645137",
"m  c #66523A",
"M  c #69563C",
"N  c #6C593E",
"B  c #373A40",
"V  c #253450",
"C  c #3D454B",
"Z  c #2D4F57",
"A  c #22416B",
"S  c #244F68",
"D  c #4A464C",
"F  c #4D4C4D",
"G  c #555456",
"H  c #58575A",
"J  c #5A5A5C",
"K  c #6A5741",
"L  c #6D5B42",
"P  c #715D42",
"I  c #715E43",
"U  c #725F46",
"Y  c #736046",
"T  c #746046",
"R  c #746147",
"E  c #77644A",
"W  c #78654A",
"Q  c #43646B",
"!  c #5D676B",
"~  c #5C676C",
"^  c #676269",
"/  c #6D6972",
"(  c #6F6C75",
")  c #747075",
"_  c #747076",
"`  c #72747B",
"'  c #7A777B",
"]  c #7B7A7E",
"[  c #7C7B7F",
"{  c #345491",
"}  c #3A5B95",
"|  c #2F7380",
" . c #6E788C",
".. c #4A76C4",
"X. c #4F7BCA",
"o. c #807B84",
"O. c #847F86",
"+. c #77858D",
"@. c #7C868F",
"#. c #6A8E95",
"$. c #7E8992",
"%. c #7199A5",
"&. c #7597B5",
"*. c #4CA6B9",
"=. c #56A4B4",
"-. c #78B2BE",
";. c #518FD0",
":. c #5F8ADA",
">. c #6D8BC8",
",. c #79B8C7",
"<. c #64BED5",
"1. c #5CB8E5",
"2. c #67A3E6",
"3. c #65ADFF",
"4. c #5ECFE4",
"5. c #5FC3EE",
"6. c #5ED0E4",
"7. c #61CFE6",
"8. c #62C5EF",
"9. c #64D2E6",
"0. c #64D4EB",
"q. c #6ED5EA",
"w. c #6FD9ED",
"e. c #7AD4E7",
"r. c #74DAEF",
"t. c #73DEF2",
"y. c #858087",
"u. c #86838A",
"i. c #85848D",
"p. c #8A848C",
"a. c #898991",
"s. c #898A93",
"d. c #889CA7",
"f. c #959CA4",
"g. c #97A0A9",
"h. c #98A0AA",
"j. c #9BAEB8",
"k. c #8ABAC4",
"l. c #97B9C5",
"z. c #84C3D1",
"x. c #83E2F5",
"c. c #91E5F5",
"v. c #93EBFC",
"b. c #99ECFD",
"n. c #A5F2FF",
/* pixels */
"L Y U K U K K K M M M m m n n n n M n n n n n n n k X           ",
"U U L U K K K K K M M m n M M n n n M N n n n n j 1 % $ & $     ",
"L L U U L K K K K m m m M M N M M m N M n n n d = % a G ^ D $   ",
"K L L L M m K b m K m M M N N N M N M M n x k 1 % 0 J [ u.^ &   ",
"N N N N M m m m m n m m M M M M N M N N n j * % a J _ y.p.^ &   ",
"N N N N m m m m n n M M N M n M m N N m k r - q J ] y.o./ F , O ",
"N T P N M n n n m M N L L M M M N N N k = % a J _ y.p./ p : t j ",
"T T T P M M n n m M N L N N M M N n k t % e J  .a.i.( F : - k L ",
"E E T N L N M m M N N N L L M L M k - % f J _ s.f.i.a & t l m M ",
"W E T T P L N M M M M N L L L c k 1 % e J  .s.s.$.~ q - l L N M ",
"R T T T U L K M K N N L L L L l - % a J _ s.f.a.C e f z n N P P ",
"L L T T L L K M M N L L L M l y % 0 J ' u.i.@.~ e - c Y N M N P ",
"M N N L M M M M K L L T E c > % a J _ u.p.( B w y c K L N m K K ",
"m M N N M M M K L Y Y L c y % e H  .a.u.( D - * k L L K M K M m ",
"L N Y P L M M M L Y E v > % a J _ a.f.i.B % < d n M M m m m m m ",
"T T T P L L L m c l l u % e J [ a.s.s.~ 0 * s x n m b b m m M m ",
"P P N n M N L z > X X : f J _ a.f.$.C w s j l x v v x n M M M n ",
"P P N x j d j s % o o e J  .a.a.$.~ w = k n v x x x n n M N M M ",
"N N M k = X . % j F F H ' a.g.$.C e f z x n x x v n n n N N N M ",
"N n k t 7 4 4 V }  .` ] i.a.$.~ w = z N n n x x n M M M N N N N ",
"P l = 7 } ....X.:.>.i.p.f.$.C q s k n m n x x x N N N N N N N Y ",
"j y 7 A ;.3.3.3.3.2.&.d.j.+.5 . j N m n x x n n M N N N N M N T ",
"X e } ;.1.8.8.5.5.5.<.,.l.+.5 . d M n n n n n m M M N N M M N N ",
"  8 ..3.8.6.6.9.q.w.0.<.%.^ q - k M m m n m m m M n n n M M M N ",
"  8 ..3.8.7.6.q.c.c.q.*.Z q d x N N M m n n m m n n n n n M M m ",
"  8 ..3.8.7.4.q.c.b.x.=.6 . g N P K N M n n n m n n v n n n M m ",
"  8 ..3.8.4.4.7.q.x.b.,.9 . d N N N K N n n n n n n n v b v n m ",
"  3 { ;.1.0.r.r.r.e.z.#.p = k M N N K M n v n n M n n n b n m m ",
"    3 S *.t.v.n.n.z.Q u f v M N N N N M v v v n b b b v n K K M ",
"+ X   # | =.-.k.k.#.u * h N N N N M N M n v v b b b v b m K K K ",
"l t X   2 9 i i i p f h n N N M n M N M n n b v v v v v M N M N ",
"U l +             O h N N M M M n M N M m n b v v v v v M K M N "
};
