/* XPM */
static char *_783b80ef1204bd0f87ab17293cf7378IAbGxap2bZDK1Yh5[] = {
/* columns rows colors chars-per-pixel */
"32 32 154 2 ",
"   c #000000",
".  c #0B0501",
"X  c #0E0A04",
"o  c #0C0C0D",
"O  c #110A04",
"+  c #15110A",
"@  c #1F150A",
"#  c #110E11",
"$  c #061B1F",
"%  c #121313",
"&  c #1C1914",
"*  c #19171A",
"=  c #19181B",
"-  c #22170B",
";  c #241A0D",
":  c #241C12",
">  c #281F14",
",  c #211D1A",
"<  c #2A2115",
"1  c #25201E",
"2  c #312518",
"3  c #392D1F",
"4  c #071025",
"5  c #061E22",
"6  c #071228",
"7  c #0C1C39",
"8  c #111F3A",
"9  c #1B2023",
"0  c #0D2A31",
"q  c #1C2333",
"w  c #11203C",
"e  c #183136",
"r  c #272724",
"t  c #292925",
"y  c #272829",
"u  c #282829",
"i  c #392E20",
"p  c #3E3224",
"a  c #202736",
"s  c #2C3432",
"d  c #24363A",
"f  c #323436",
"g  c #3D3D3A",
"h  c #433624",
"j  c #4A3A25",
"k  c #413729",
"l  c #43392B",
"z  c #503F27",
"x  c #503F2A",
"c  c #4F402A",
"v  c #53432C",
"b  c #554532",
"n  c #594732",
"m  c #5D4B33",
"M  c #5C4D39",
"N  c #614E35",
"B  c #624F38",
"V  c #645137",
"C  c #66523A",
"Z  c #69563C",
"A  c #6C593E",
"S  c #373A40",
"D  c #383C41",
"F  c #253450",
"G  c #3D454B",
"H  c #2D4F57",
"J  c #22416B",
"K  c #244F68",
"L  c #4A464C",
"P  c #4D4C4D",
"I  c #555456",
"U  c #58575A",
"Y  c #5A5A5C",
"T  c #6A5741",
"R  c #6D5A40",
"E  c #6E5A41",
"W  c #6D5B42",
"Q  c #6F5C41",
"!  c #705D42",
"~  c #725E44",
"^  c #725E45",
"/  c #746046",
"(  c #766349",
")  c #78654A",
"_  c #615E63",
"`  c #43646B",
"'  c #5C676C",
"]  c #676269",
"[  c #6D6972",
"{  c #6F6C75",
"}  c #747075",
"|  c #747076",
" . c #7A777B",
".. c #7C7A7E",
"X. c #7C7B7F",
"o. c #345491",
"O. c #3A5B95",
"+. c #2F7380",
"@. c #6E788C",
"#. c #4A76C4",
"$. c #4F7BCA",
"%. c #807B84",
"&. c #847F86",
"*. c #77858D",
"=. c #7A868E",
"-. c #7D878F",
";. c #6A8E95",
":. c #7E8992",
">. c #7199A5",
",. c #7597B5",
"<. c #4CA6B9",
"1. c #56A4B4",
"2. c #78B2BE",
"3. c #4F8BD1",
"4. c #518FD0",
"5. c #5F8ADA",
"6. c #6D8BC8",
"7. c #4DA9C1",
"8. c #79B8C7",
"9. c #64BED5",
"0. c #5CB8E5",
"q. c #67A3E6",
"w. c #65ADFF",
"e. c #5ECFE4",
"r. c #5FC3EE",
"t. c #5ED0E4",
"y. c #61CFE6",
"u. c #62C5EF",
"i. c #64D2E6",
"p. c #64D4EB",
"a. c #6ED5EA",
"s. c #6FD9ED",
"d. c #7AD4E7",
"f. c #74DAEF",
"g. c #73DEF2",
"h. c #858087",
"j. c #86838A",
"k. c #85848D",
"l. c #8A848C",
"z. c #898991",
"x. c #898A93",
"c. c #889CA7",
"v. c #959CA4",
"b. c #97A0A9",
"n. c #98A0AA",
"m. c #9BAEB8",
"M. c #8ABAC4",
"N. c #97B9C5",
"B. c #84C3D1",
"V. c #83E2F5",
"C. c #91E5F5",
"Z. c #93EBFC",
"A. c #99ECFD",
"S. c #A5F2FF",
/* pixels */
"          O c R Z A ! / A C C C C Z Z A ^ ^ A Z Z C C C T R Z Z ",
"    # = * 1 p v C A A A A C C C C T A Q ! A A Z Z Z C C Z T Z R ",
"  # L ] _ P , : b A Z Z Z T C C A A A T A Z A Z V C V N C T T Z ",
"  * _ l.x.[ f , p b C T T T C C Z A A A A Z Z Z V V N N B Z Z Z ",
"  % I @.&.%.[ P , : b ^ Q T C N V V C A ! A Z C C N N N B B B N ",
"O , l Y  .&.&.{ S y l M T Q Z N m N V Z ! ! Z C N N C B B B N N ",
"j i & u Y  .&.l.:.' r < n ! Z C m N V Z Z Z Z C C C B C B N N N ",
"C x - & g _ | x.v.=.L r l b N V m m N V Z C C C C C C B B N N N ",
"Z N v 3 & y Y ..x.x.:.' t - j m N m m m N V C C C N V V V C N C ",
"V V V z - & g Y } z.v.:.D & 2 h n N m m m N C C C V V V N N N C ",
"V V V m c 3 & y Y @.x.k.{ L & @ z V V m m N V V V V N N N N N C ",
"V V V V Z v ; & l Y | h.k.{ D r h v m V N N V C V V V V N N C Z ",
"C C Z Z Z V v p & u Y  .h.k.x.' 2 ; n R C V V V C Z A A C Z A Z ",
"C Z Z Z A A A v : & g Y } x.v.:.G r l n V C C C A A A A A A Z A ",
"V Z Z Z A A A V v 3 & y Y ..z.x.:.' r : v A Z Z A A A A A Z Z V ",
"V C Z Z Z Z Z A A v : & g U } z.n.=.L r h z j v Z ! A A A Z Z V ",
"V C A A Z C Z Z R M b p & y Y @.x.x.:.' t . . < n ! A A A ! Z Z ",
"V C A A Z C Z Z W W W b < & c Y } l.n.:.G 9 9 t k c j v Z A Z Z ",
"C C Z Z Z Z A A R R R T M l = u Y @.x.x.=.*.=.' t . . ; n A A Z ",
"C Z C Z Z A T R R R R R ) M < & c Y | k.v.m.N.>.H 0 e f l v V Z ",
"Z Z V Z C T R R T A Q R ( W M s = y U  .j.c.8.9.<.1.8.;.s - v Z ",
"Z V Z Z C Z T R T T T R W / ( b X o P | -.,.9.p.s.V.A.B.` s l x ",
"Z Z Z C M C Z Z Z Z A R W ~ / b X o P *.6.q.0.s.C.A.V.d.B.;.f O ",
"Z Z Z C C V C Z Z Z Z T W R Q b < , c O.5.w.r.s.C.C.a.f.S.M.d   ",
"Z Z Z Z C V V V Z Z Z Z Z Z A C n h & F $.w.u.i.a.a.y.f.S.M.d   ",
"Z Z Z Z C V V V Z Z A Z Z Z A R Q v . 7 #.w.u.t.e.e.e.f.Z.2.d   ",
"A A Z Z V V V Z A Q Q Q Z Z T R Z j . 7 #.w.u.y.e.e.e.p.g.1.e   ",
"Q Q R A Z Z Z A Q Q ^ ^ T T A R Z c - q O.3.0.u.u.u.u.0.7.+.5   ",
"~ W / W A A A / Q ^ / ^ A A ^ ! Z m v p q J 3.w.w.w.w.4.K $     ",
"W W ~ W A A A / / / ) Q A A / ^ Z Z A v ; q O.#.#.#.#.o.4   . + ",
"/ W R R A A / / ) / / Q A Z Q ^ ! Q A V v l a 8 8 w w 6   . p b ",
"/ ~ Q T A A Q / ) ) / Q Z Z Q ! ^ ! A A Q v O             + b / "
};
