/* XPM */
static char *_82_5a9e76c79af5a0836a67284ff966c8e5fb461e9eb74fd783d201a0362c10af1e[] = {
/* columns rows colors chars-per-pixel */
"32 32 236 2 ",
"   c #0D1401",
".  c #141906",
"X  c #23270A",
"o  c #383A07",
"O  c #2A3518",
"+  c #3C3C17",
"@  c #2A3010",
"#  c #1A373D",
"$  c #0A272F",
"%  c #2D3A25",
"&  c #383B24",
"*  c #20343B",
"=  c #311F0B",
"-  c #463A1A",
";  c #453D2B",
":  c #3D460E",
">  c #3A451A",
",  c #3E4718",
"<  c #3D4B33",
"1  c #3A4F2D",
"2  c #464619",
"3  c #4B561D",
"4  c #59571A",
"5  c #454B25",
"6  c #564827",
"7  c #4A5828",
"8  c #585727",
"9  c #474837",
"0  c #475938",
"q  c #585834",
"w  c #65542A",
"e  c #654D31",
"r  c #695A38",
"t  c #775B3C",
"y  c #60462B",
"u  c #5D642A",
"i  c #50633B",
"p  c #666429",
"a  c #666737",
"s  c #736C37",
"d  c #6D7439",
"f  c #072A46",
"g  c #0C3855",
"h  c #093244",
"j  c #384543",
"k  c #355254",
"l  c #144873",
"z  c #375160",
"x  c #4B5749",
"c  c #495858",
"v  c #535D5B",
"b  c #495245",
"n  c #635741",
"m  c #5B6757",
"M  c #58765F",
"N  c #546C45",
"B  c #746945",
"V  c #677749",
"C  c #7B7449",
"Z  c #646458",
"A  c #757955",
"S  c #475E68",
"D  c #546E7B",
"F  c #487B79",
"G  c #526D67",
"H  c #636B6A",
"J  c #687476",
"K  c #676F71",
"L  c #836B3B",
"P  c #876C4A",
"I  c #887548",
"U  c #867B56",
"Y  c #977A56",
"T  c #857567",
"R  c #7B8347",
"E  c #71875D",
"W  c #5F827C",
"Q  c #7B8669",
"!  c #7D9362",
"~  c #668876",
"^  c #669075",
"/  c #958359",
"(  c #878A58",
")  c #A9875A",
"_  c #99936A",
"`  c #979377",
"'  c #8F8C6F",
"]  c #A1977B",
"[  c #B0936B",
"{  c #94A97E",
"}  c #3B7EA9",
"|  c #25648D",
" . c #4D7290",
".. c #589395",
"X. c #56838B",
"o. c #6F948E",
"O. c #75A592",
"+. c #579BA9",
"@. c #5292B5",
"#. c #6E9CA9",
"$. c #678DAD",
"%. c #53A1A9",
"&. c #59A1BB",
"*. c #6AACB8",
"=. c #0794DF",
"-. c #1996DC",
";. c #0F8AD2",
":. c #2499DB",
">. c #3A9BD9",
",. c #218DC9",
"<. c #2DA3DC",
"1. c #34A5D9",
"2. c #0A9BE8",
"3. c #1899E8",
"4. c #059EF1",
"5. c #1C9DF9",
"6. c #1A9EF5",
"7. c #2599E4",
"8. c #379DE7",
"9. c #269DF2",
"0. c #329FF4",
"q. c #1EA3ED",
"w. c #1DA3F5",
"e. c #1DA2FB",
"r. c #19A4F9",
"t. c #0DA4F2",
"y. c #22A1E7",
"u. c #21A5EC",
"i. c #2AA4EC",
"p. c #2EA4E5",
"a. c #36A5EA",
"s. c #2CA8F3",
"d. c #3AA5FC",
"f. c #39A6F6",
"g. c #37B1F8",
"h. c #4997C5",
"j. c #5696C4",
"k. c #489DD9",
"l. c #579CD5",
"z. c #659DC3",
"x. c #4AA4D9",
"c. c #58A3D7",
"v. c #54ABCF",
"b. c #75B3CA",
"n. c #70ADD0",
"m. c #469EEA",
"M. c #46A8E7",
"N. c #54AEED",
"B. c #57A9E6",
"V. c #58B4E9",
"C. c #41ADF3",
"Z. c #44ACFD",
"A. c #48AAF8",
"S. c #54ADF4",
"D. c #45B2FD",
"F. c #4BB3FE",
"G. c #48B1F4",
"H. c #57B8FA",
"J. c #66B6EA",
"K. c #77BFEB",
"L. c #63BFFE",
"P. c #68B8F6",
"I. c #77BCF6",
"U. c #5EC3FF",
"Y. c #6DC4FF",
"T. c #66C4FA",
"R. c #78C7F8",
"E. c #7BD4FF",
"W. c #7AC4ED",
"Q. c #9C8984",
"!. c #8E9B92",
"~. c #A69A86",
"^. c #B99589",
"/. c #98A78C",
"(. c #B9A683",
"). c #AFAB8F",
"_. c #99B8BB",
"`. c #8AA3AC",
"'. c #B5B8AF",
"]. c #ADB7B7",
"[. c #C8B58D",
"{. c #CCB58F",
"}. c #C5BBA1",
"|. c #B0C9B4",
" X c #D8C49B",
".X c #D7C7A5",
"XX c #C6C6B4",
"oX c #CAC4A0",
"OX c #E6D3AB",
"+X c #8AAFC5",
"@X c #95BFD8",
"#X c #86B4D0",
"$X c #8AB8E9",
"%X c #85BBFA",
"&X c #9DC8CE",
"*X c #9CC5D5",
"=X c #AACED0",
"-X c #88C5EA",
";X c #98C7EB",
":X c #97D2EA",
">X c #84CCFE",
",X c #8AC7FA",
"<X c #93CCF3",
"1X c #9CCBF3",
"2X c #95CAF9",
"3X c #8CD5FF",
"4X c #87D9FB",
"5X c #94D5FD",
"6X c #9CD3FB",
"7X c #95DDFF",
"8X c #9BD7F8",
"9X c #A4CEEC",
"0X c #A7D6E7",
"qX c #B5D7E9",
"wX c #A4CEF7",
"eX c #A2D5F5",
"rX c #A5DCFE",
"tX c #ABDBFE",
"yX c #A8D6F9",
"uX c #B2DEFE",
"iX c #B6DAF4",
"pX c #B4CFEA",
"aX c #96E2FD",
"sX c #A8E7FF",
"dX c #B4E3FF",
"fX c #BBE3FE",
"gX c #BBEAFE",
"hX c #B6E8FB",
"jX c #BBF6FF",
"kX c #C9DCF3",
"lX c #C4EAFF",
"zX c #CDECFF",
"xX c #CAE4FA",
"cX c #CAF6FF",
"vX c #CDE9F5",
"bX c #C5D1D1",
/* pixels */
"1X8XsXW.x.R.8XhXlXdXhX>XV.R.aX4Xp.s.s.9.3.4.4.4.4.;.H.7X6XyXwXyX",
";X6X7XJ.k.P.7XjXuX;X%XJ.M.H.E.T.:.p.9.9.6.6.t.4.=.;.T.4XrXuXiXyX",
"$X2X>Xm.7.a.T.4X5XI.8.8.0.A.H.G.:.y.9.5.6.e.4.2.=.:.N.,XuXuXyXwX",
",XI.B.,.3.3.i.C.P.Y.8.-.0.Z.m.d.u.u.6.5.5.6.6.3.7.8.J.%X1X$X1X1X",
"Y.T.1.;.;.2.2.=.g.U.G.7.f.d.7.s.u.q.e.e.5.e.6.7.:.H.Y.,X$X-X9XwX",
"Y.R.V.,.:.q.t.2.y.a.g.s.9.d.5.3.q.w.e.e.s.6.7.:.C.Y.>X,X1XdXuXiX",
"W.aX4Xc.k.>.y.q.:.y.u.s.s.s.s.q.w.s.e.r.e.q.q.<.F.P.I.%XrXcXlXqX",
"1XhXlX*X+X&.1.i.i.i.y.g.g.p.<.<.<.:.p.p.<.1.1.1.N.B.l.c.2XhXlXlX",
"qXvXbX).~.`.l.f.d.d.d.p.M.x.>.%.%.+.%.*.%.%.%.%.&.&.&.z.#XgXdXgX",
"kXkX'.^.[ Q.j.m.A.m.x.h.&.+.....^ o.o.M ^ O.^ ^ #.o...#.&X0XdXdX",
"fXkX].~.^.T $.l.l.n.X.k M E 1 1 N 7 i i E V V ! ! ! Q E /.=XqXqX",
"gXxX].Q.^.Q.`.+X_.].~.d 2 3 7 7 2 8 3 p 3 3 8 u u a R ! /.|.=XqX",
"0X&X'.~.Q.).XXXXXXoX.X X/ s p u 2 + , - 5 - 7 2 : 7 3 d V ^ 0X:X",
"&X~ Q /.Q XX.X{. X[.{..X X{.[ C q 6 6 6 6 B 5 O O 1 7 7 0 M &X@X",
"_.D ( ~.Z }.}.OX.X.X.XoX[.(.(.U t 6 t r e n 9 x k > > , 1 x `.*X",
"*.X.Q C q }..X X[.(.U B U e e P Y y B t 6 5 Z J K k @ X O b O.&X",
"v.W 0 d 4 ( ).U [ [ [ Y e = t ) P e t q 5 9 K H J H 9 % X % G _.",
"b.F V d s p ( s L ) {._ n - L Y e - + + 5 < Z J J H 9 & & < J =X",
"b.X.0 p 4 p 4 s L [ [.Y ' T U I 6 6 o X 5 > x v H x 7 > , O J kX",
"4X*.N p 4 p o w / L / 6 q r C _ C a 8 2 - ; 9 b 9 @ + o V 1 _.iX",
"W.:XM i 3 : : s 4 6 U ( ( s 4 r r r / _ _ ` ` ' ( V 8 8 A !.iXtX",
"W.aXF 1 1 q 2 > - - 3 8 A _ U ] ] ] ~.~.] ~.' ` Q ' 6 q 9 o.eXW.",
"-XsX*.$ < % &     . X X . O & & q ; ; & ; 9 9 x M v b x  .X.c.>.",
"-X7X-X . .z * $ $ * * j S S S v v v H v c v c b k S D $.z.j.>.a.",
"$X8X>Xh.h.h.} | l l g f f f f $ f f g g f k z D  . .j.h.m.8.8.i.",
"$X2X>Xx.k.>.N.S.S.B.l.h.j.j.@.@.@.h.h.@.n.yXlXzXgX%Xm.m.m.0.f.8.",
"#X1XdXaXW.k.8.C.f.d.C.G.A.S.N.N.S.H.N.x.W.jXlXuXrXP.>.8.M.G.L.V.",
"1XyXjXjX3XB.M.m.a.p.a.a.A.A.F.Z.F.C.C.x.v.5XdXtX5XB.k.m.H.Y.E.I.",
"5XsXhXdXrX2X1Xn.<X7XT.1.G.F.Z.F.D.D.F.M.c.<XtXrX5Xc.c.J.3X7X5X2X",
"<X8XrXeXwXwXzXzXzXcXsXV.M.A.Z.Z.Z.D.C.M.J.sXsX1X2X-X7X<X<X6X,X%X",
"9X9XeXwX8X8XiXzXzXzXcX8Xk.C.F.Z.F.H.H.M.V.3X5X5X$X6XjXsX1X2X%X%X",
"*X9XtX8X1X9XhXfXzXxXcXhXV.H.F.F.F.A.U.G.x.>X5X2X$X;XeX9XeX2X%X,X"
};
