/* XPM */
static char *_7702_2a96b72cbdc6fa76df6129cacf90a5d992ccc98e6b8e586a0533fc443f1f661d[] = {
/* columns rows colors chars-per-pixel */
"32 32 171 2 ",
"   c #0C8DD9",
".  c #118DD7",
"X  c #0891DF",
"o  c #3490CF",
"O  c #3097DC",
"+  c #379ADD",
"@  c #3C9CDE",
"#  c #0A97E6",
"$  c #0998E7",
"%  c #0497EC",
"&  c #0599EC",
"*  c #0D9AED",
"=  c #1694E1",
"-  c #1B96E5",
";  c #1E97E8",
":  c #149AEB",
">  c #1B9CED",
",  c #0B9DF0",
"<  c #149EF2",
"1  c #1B9FF2",
"2  c #2B97E0",
"3  c #239AE4",
"4  c #259DEC",
"5  c #2B9DEE",
"6  c #339DE4",
"7  c #3C9DE1",
"8  c #349FEA",
"9  c #239EF1",
"0  c #0FA0EF",
"q  c #17A2F3",
"w  c #1DA1F3",
"e  c #2EA1EC",
"r  c #3DA0E4",
"t  c #33A2EC",
"y  c #3CA3EB",
"u  c #24A3F4",
"i  c #2CA5F4",
"p  c #2FA8F6",
"a  c #25A5F8",
"s  c #2EA9F9",
"d  c #32A5F5",
"f  c #3AA7F2",
"g  c #33A9F7",
"h  c #3CAAF5",
"j  c #33A7F9",
"k  c #34A9F9",
"l  c #3CACFB",
"z  c #3DB1FF",
"x  c #429DDC",
"c  c #52A4DC",
"v  c #59A4DB",
"b  c #5DA9DD",
"n  c #61A7DA",
"m  c #419EE1",
"M  c #44A2E3",
"N  c #49A3E5",
"B  c #43A5EB",
"V  c #49A6E9",
"C  c #42AAEE",
"Z  c #4BA9E9",
"A  c #52A6E3",
"S  c #53A9E6",
"D  c #53AAED",
"F  c #5FB0E5",
"G  c #53B1EE",
"H  c #5CB0EE",
"J  c #42A7F2",
"K  c #44ABF4",
"L  c #42AEFC",
"P  c #4BAFF9",
"I  c #57AEF3",
"U  c #50AEF8",
"Y  c #44B1FD",
"T  c #4AB3FE",
"R  c #5BB4F4",
"E  c #52B5FD",
"W  c #59B4FA",
"Q  c #54BAFE",
"!  c #5DBAFD",
"~  c #64AEE4",
"^  c #63AEE8",
"/  c #66B2E6",
"(  c #6AB4E5",
")  c #65B2E8",
"_  c #7FB7E6",
"`  c #7CB9E7",
"'  c #7DBBED",
"]  c #63B5F5",
"[  c #68B7F0",
"{  c #6FBEF7",
"}  c #64B7F9",
"|  c #63BBFD",
" . c #6ABEFB",
".. c #76BDF6",
"X. c #7DBEF4",
"o. c #75BFFF",
"O. c #78BEFC",
"+. c #63C0FF",
"@. c #6EC2FE",
"#. c #77C0F5",
"$. c #79C5F7",
"%. c #72C2FE",
"&. c #7BC2FB",
"*. c #7DCBFF",
"=. c #76D1FF",
"-. c #7BD3FF",
";. c #86BAE2",
":. c #89BDE5",
">. c #84BDEE",
",. c #8BBEEB",
"<. c #85BDF1",
"1. c #85C4EF",
"2. c #8DC0ED",
"3. c #92C4ED",
"4. c #99C5EA",
"5. c #97C9EE",
"6. c #9BC8EE",
"7. c #85C2F4",
"8. c #8CC5F4",
"9. c #8EC8F6",
"0. c #83C4FB",
"q. c #8AC6FB",
"w. c #83CEFF",
"e. c #8CCCFE",
"r. c #92C5F1",
"t. c #94CAF5",
"y. c #9BCCF3",
"u. c #94CCFD",
"i. c #9ACDFB",
"p. c #85D3FF",
"a. c #8CD2FF",
"s. c #8CD9FF",
"d. c #92D4FF",
"f. c #9CD3FD",
"g. c #92D9FF",
"h. c #9DDCFF",
"j. c #A4CDEF",
"k. c #A8CFEE",
"l. c #A2CDF3",
"z. c #A1CFF9",
"x. c #A3D1F6",
"c. c #ABD3F4",
"v. c #A4D3FB",
"b. c #AAD5FB",
"n. c #A3DCFF",
"m. c #ABDBFE",
"M. c #B3D6F3",
"N. c #B5DAF7",
"B. c #B3DCFD",
"V. c #BBDDFB",
"C. c #9EE0FF",
"Z. c #A1E3FF",
"A. c #ADE3FF",
"S. c #ADECFF",
"D. c #B3E3FF",
"F. c #BBE2FE",
"G. c #B2EAFF",
"H. c #BFEBFF",
"J. c #BFF0FF",
"K. c #C4E4FD",
"L. c #CBE7FA",
"P. c #C4EAFF",
"I. c #CCEAFE",
"U. c #D2ECFD",
"Y. c #D9ECFB",
"T. c #C4F2FF",
"R. c #CEF7FF",
"E. c #CDFFFF",
"W. c #D4F7FF",
"Q. c #DEF8FF",
"!. c #E4F2FD",
/* pixels */
"y.f.A.>.v #.x.P.P.F.P.5.n w.n.f.r i s > : , , & %   o.m.t.v.v.x.",
"9.9.S.( o @.m.P.m.t.#.{ N | w. .3 w a 1 q : < & &   H n.v.F.B.M.",
"8.0.s.x 6 y $.h.a...6 u 3 K | P ; w w 1 1 < < , & = | q.b.B.c.l.",
"7.*.h   # # > K @.@.t - i d f z d 9 u 1 1 1 < , : d I 0.i.6.y.t.",
"#.%.2 X # 0 0 = V =.l ; i l 4 u a 1 w w u 1 1 : - Q O.q.<.>.z.l.",
">.p.Q . : w q : : s z 5 d k 9 1 > u a u w w < ; y o.e.y.6.H.V.c.",
"2.h.a.N 6 u w w 1 9 u l i i u u w u u u a u u 4 | o.O.' b.P.K.F.",
"k.F.T.8.! t u u i u 9 j l i i u u u u u u i i i T J J S f.K.K.L.",
"k.P.I.G.D t g i g l k 5 l i i i u a p i i i i i i d d 7 ' D.F.K.",
"F.F.x.a.K d g l h k k d k i i i i i p i s i j d i 5 6 @.7.b.B.K.",
"P.D.#.O f d k k k k j k i d i i i i s i i j g d i 2 ..m.v.M.c.N.",
"F.B.C.N t k k d k d k k l k i i i p s k i j k d d S D.I.P.M.k.c.",
"b.m.A.) y j d d k d k k l k g d p i k g g d k d y [ F.U.K.M.j.6.",
"f.8.&.] T h g g k k j k k k k j p g k k k g k f 7 *.P.L.K.c.j.,.",
"@.D y T W K h l l l k k k k k k k i k k j j g t x Z.P.V.V.c.3.,.",
"Q 6 f L Y Y l l k k k k k k j j s k k k g k g t @ g.B.V.B.6.,.,.",
"T 8 f L L l L k k l l k k j j l p k k k k g k t H d.m.v.l.r.r.2.",
"W 8 f l l L L l l l l l l j l j g k l l k k g C O.n.i.<.r.z.b.l.",
"+.y f l l l L l l l l k l l l s s k l k k k l J [ e...X.i.l.B.c.",
"0.&.} E h L l L l L l l l l l j k l l l h g z K P ! D %.X.m.b.M.",
"X.w.! J h Y L L L L l L L l l l l l l l l l Y l l y W &.8.D.m.x.",
",.d.y d L Y L L L L L T Y L l l h z K z l l l g l y R e.b.b.f.>.",
":.h.R t l L L L Y Y T Y Y l h L l z L L l g p i g f K ! | W h 5 ",
":.Z.p.M f l L L Y P L L z Y Y Y z Y Y z k e G -.| B K L f d i u ",
";.Z.-.O t k Y L Y h Y Y Y Y Y Y Y Y Y L k + t.E.p.V f g p d i e ",
"_ d.*.B 3 k l l z z z L z Y Y Y Y T Y B ) A.P.K.G.) y k p i g i ",
"` r.P.H.@.6 d k h h h z Y Y Y T T Y Y B 1.R.K.B.G./ 8 k t T @.D ",
"4.B.K.H.S.c C i u u p z h Y T Y T T z K 7 p.A.b.a.M t y @.#.&.&.",
"l.F.H.F.B.t.p.~ 8.C.! t h z Y T T T Y K m s.Z.n.d.N D ] u.m.i.8.",
"5.y.b.c.6.c.I.Y.!.!.J.b B Y Y Y Y T Y B ( G.v.b.t.8.m.8.i.f.<.X.",
"x.y.v.l.l.c.F.K.I.L.W.f.m z Y L T T T T S s.f.i.` f.P.V.x.i.7.0.",
"3.f.B.l.l.l.F.L.L.U.Y.H.F Q T T Q T E W Z *.f.t.7.8.m.l.f.8.<.q."
};
