/* XPM */
static char *result[] = {
/* columns rows colors chars-per-pixel */
"32 32 188 2 ",
"   c #0F0E0E",
".  c #10100F",
"X  c #141413",
"o  c #191717",
"O  c #191817",
"+  c #1C1C1B",
"@  c #241D1B",
"#  c #2D1C1A",
"$  c #22211F",
"%  c #2B231E",
"&  c #2D2B1F",
"*  c #31211F",
"=  c #242423",
"-  c #292623",
";  c #2C2A25",
":  c #272828",
">  c #2C2C2B",
",  c #362726",
"<  c #332D25",
"1  c #322E2C",
"2  c #3B2E2C",
"3  c #34312E",
"4  c #3B342C",
"5  c #3F392E",
"6  c #2E2E31",
"7  c #363433",
"8  c #3B3433",
"9  c #3D3935",
"0  c #373838",
"q  c #3C3B3A",
"w  c #6E291B",
"e  c #70281A",
"r  c #472F2E",
"t  c #41352B",
"y  c #463B2C",
"u  c #483A2B",
"i  c #563124",
"p  c #423534",
"a  c #4B3535",
"s  c #433C34",
"d  c #4A3E31",
"f  c #443C3B",
"g  c #4C3D3C",
"h  c #533534",
"j  c #523E3D",
"k  c #622E29",
"l  c #67312A",
"z  c #643C3A",
"x  c #7A3F37",
"c  c #63561C",
"v  c #48432F",
"b  c #5A4C23",
"n  c #564828",
"m  c #5A582B",
"M  c #4B4235",
"N  c #43403F",
"B  c #4B433B",
"V  c #524535",
"C  c #544937",
"Z  c #5E4C36",
"A  c #52443D",
"S  c #554A3C",
"D  c #5B4D3A",
"F  c #5F5D31",
"G  c #5D533F",
"H  c #655C2C",
"J  c #745D21",
"K  c #7B532C",
"L  c #624F37",
"P  c #604F39",
"I  c #78403E",
"U  c #6C5A35",
"Y  c #64523C",
"T  c #69563E",
"R  c #6C593D",
"E  c #755231",
"W  c #735B3C",
"Q  c #785B39",
"!  c #7E5D3A",
"~  c #6A6426",
"^  c #756323",
"/  c #766B25",
"(  c #7F7825",
")  c #766336",
"_  c #7A6836",
"`  c #72613B",
"'  c #434242",
"]  c #4C4443",
"[  c #4A4847",
"{  c #4D4B4A",
"}  c #534443",
"|  c #5B4342",
" . c #524847",
".. c #534B4A",
"X. c #5A4C4B",
"o. c #5D5244",
"O. c #55514C",
"+. c #5C544B",
"@. c #555351",
"#. c #5C5653",
"$. c #6B4A4A",
"%. c #635543",
"&. c #695741",
"*. c #6C5A42",
"=. c #63584B",
"-. c #6D5D49",
";. c #725D45",
":. c #715E49",
">. c #615656",
",. c #736147",
"<. c #74624A",
"1. c #79664D",
"2. c #973D2E",
"3. c #A24E1D",
"4. c #AA531C",
"5. c #B7591B",
"6. c #937E1B",
"7. c #8D5A2D",
"8. c #9D5C2A",
"9. c #964A38",
"0. c #875938",
"q. c #A9482B",
"w. c #AA542A",
"e. c #9A682A",
"r. c #897727",
"t. c #866233",
"y. c #9A6B35",
"u. c #877535",
"i. c #837935",
"p. c #A46828",
"a. c #A77325",
"s. c #B3653D",
"d. c #B8633B",
"f. c #B56A3B",
"g. c #B9753D",
"h. c #C95B1B",
"j. c #DA5A13",
"k. c #F35704",
"l. c #E25D10",
"z. c #D76D04",
"x. c #D17216",
"c. c #EC6008",
"v. c #F26905",
"b. c #F47307",
"n. c #DA7932",
"m. c #89644C",
"M. c #966C4A",
"N. c #9C8716",
"B. c #BB841A",
"V. c #B38E18",
"C. c #BA921B",
"Z. c #BAA61C",
"A. c #96862A",
"S. c #9A822B",
"D. c #B18F23",
"F. c #A49224",
"G. c #A99B27",
"H. c #BD9A21",
"J. c #AC8B3E",
"K. c #BD9D36",
"L. c #B8A326",
"P. c #BAAC23",
"I. c #AEA030",
"U. c #B1A535",
"Y. c #C78619",
"T. c #DA9818",
"R. c #E0860A",
"E. c #F28A07",
"W. c #EF9607",
"Q. c #E1930D",
"!. c #F59E07",
"~. c #E49115",
"^. c #F99619",
"/. c #CCAD15",
"(. c #F0A50C",
"). c #EDBF0E",
"_. c #EAA61C",
"`. c #DE8924",
"'. c #C5AD21",
"]. c #C6B724",
"[. c #E6AD22",
"{. c #EEB129",
"}. c #D8C71F",
"|. c #F8C80B",
" X c #DAC924",
".X c #CDC032",
"XX c #D0C130",
"oX c #EC9740",
/* pixels */
"*.*.&.Y D Z Z L Y Z Y Y T R 0.0.8.;.&.Y Y T &.Y T T &.*.-.;.&.*.",
"*.R &.Y Z Z D L Y o.O.%.R ,.h.j.c.5.;.&.=.O.+.T Y Y Y &.:.-.*.&.",
"*.&.&.P Z Z L %.+.q ' S T y.c.k.k.c.7.T o.q q X.Y T T *.;.,.*.*.",
"&.&.Y Y L Y =...> > M Z U Y.v.v.b.b.x.! Y B ; 1 O.%.Y T T T R ;.",
"%.P P L Y %.{ $ . < Z L S.).!.E.E.W.|.S.Y D ; X = { o.Y Y T T T ",
"P P D Z G ..$ o $ 7 o.:.K.[._.R.z.Q.[.J.-.%.3 = O = O.Y Y T T Y ",
"&.%.L Z X.q q  .X.[ @.#.:.s.n.~.Q.`.f.m.#.{ ' X. .8 0 +.T R *.*.",
"&.R Y +... .#.#.>.{ ..} A ;.f.oXoXg.Q | ] { { #.#.X.} ..+.T *.;.",
"T R %.@.....g p 8 0 | I z f O.m.M.#.[ z I | 7 8 9 f  ...@.=.;.<.",
"W &.#. . .f p p 8 f l w.s.2.7 ' [ 6 x d.w.k p 7 8 p p }  .X.-.;.",
"*.%. .}  .g 8 2 4 $.9._.{.q.j E E } q.{.[.9.$.8 2 8 f } g ] %.*.",
";.+. .| j , # , # 8 x 4.5.9.} &.&.} 2.5.5.z 2 @ # * , j } ] o.Y ",
"*.....} a @ + + + = : r h | N [ [ ' j h r = + o @ + @ a | ' ] L ",
"o.q ] g a +   . = > : > 0 ' q 0 q 0 ' 6 = = > $ . . O a g f 9 o.",
"S = q N } 8 o X = 1 > > 6 6 i w e i 6 > ; = 2 - X X 2 ] f 9 = S ",
"s O $ 8 ] ..[ 1 4 4 3 ; : > 3.j.l.3.> = = < t 4 > f  .] 7 = + f ",
"4 o . $ < 9 B  .X.V t 4 M ^ T.^.^.~.^ M < t V } ] f 9 1 = X o s ",
"4 X X o X O < t j S < 4 n V.r.B.B.r.C.b < < A g t < @ o o X O 9 ",
"8 O X o X = y t t 4 ; 3 = 3 7 & ; 7 7 = 1 8 s p d 8 ; X + + + t ",
"M $ + o + t C 7 3 8 M M % $ $ O + $ $ = S o.q > 7 f s $ O + = M ",
"S > $ + = 9 7 ; 3 y Z Z ; O + = = + O < *.*.V M > > N 6 + = > S ",
"G 3 > + 6 q > : K 7.L t & + + $ + + + % v &.*.T 5 > 7 > > 7 0 %.",
"*.V > 3 v [ y J T.(.Y.n 4 & + + + + & u y D T t.M 3 > > 3 6 D 1.",
"T &.V b _ 7 5 ^ A.N.V.Y.C 1 + = = $ 3 V V d R p.G G s q q D ,.1.",
"T &.Y ) r.6 3 M o.4 n /.b = ; ; : : ; t D s _ e.L Z 4 7 N -.<.<.",
"Y Y Y L Z M S B C / Z.N.& 5 B $ $ 4 9 = 4 H '.D.e.K V M M *.<.-.",
"Y Z Z Z Y %.G r.P.L.i.5 : 4 S = + 4 n c 6.].}.H.a.p.e.T U *.*.T ",
"Y Y Z G Y i.P.G._ Y D 7 0 s [ & ~ F.F.r.H W W ) t.e.7.U T R *.R ",
"Y Y L L ` XX( q q B N : = > F G.A._ 5 : : N %.Y Y W Q &.&.*.:.:.",
"R T Y Z u..XD q 0 6 : > 7 ( P.~ C R q 6 > ; 9 %.&.Y &.&.*.:.-.-.",
"T &.Y G ` P.U.i.` m ~ ( P.L._ Z T T +.[ 7 > 3 Y &.T &.*.:.-.&.*.",
"T &.T Y G ) I.XX X X X/.S.W Y L L Y G F Z S D T T Y Y *.<.-.*.-."
};
