/* XPM */
static char *_303_2bb6ac708fd5b05b5c90b09ee71a1acfbab39fa6ed874ebe6fae037ff816b2d0[] = {
/* columns rows colors chars-per-pixel */
"32 32 228 2 ",
"   c #291B14",
".  c #372927",
"X  c #1F2E35",
"o  c #4D2614",
"O  c #73371C",
"+  c #732F0D",
"@  c #4B352B",
"#  c #603222",
"$  c #7B4A32",
"%  c #74513B",
"&  c #3C4953",
"*  c #3D5766",
"=  c #2E5871",
"-  c #59554D",
";  c #45525B",
":  c #535352",
">  c #575857",
",  c #475051",
"<  c #645C55",
"1  c #5B615F",
"2  c #62635B",
"3  c #4B5B66",
"4  c #525960",
"5  c #655C65",
"6  c #5C6767",
"7  c #47657A",
"8  c #52747D",
"9  c #646363",
"0  c #646A6C",
"q  c #6C6A6A",
"w  c #6A6666",
"e  c #726B69",
"r  c #74746C",
"t  c #6C6E72",
"y  c #686372",
"u  c #756E70",
"i  c #6B7171",
"p  c #7A7B79",
"a  c #767677",
"s  c #6A706E",
"d  c #833912",
"f  c #89401D",
"g  c #9B5935",
"h  c #804B2B",
"j  c #A35930",
"k  c #B0653D",
"l  c #B2704C",
"z  c #8B7D79",
"x  c #8A6960",
"c  c #AC7E64",
"v  c #966E55",
"b  c #82827D",
"n  c #A68171",
"m  c #3B7293",
"M  c #486D83",
"N  c #567586",
"B  c #547793",
"V  c #6D7D86",
"C  c #457FAF",
"Z  c #867F82",
"A  c #3284B4",
"S  c #57839C",
"D  c #7C8586",
"F  c #778694",
"G  c #6D8696",
"H  c #5A88A7",
"J  c #4B8BB5",
"K  c #528BB7",
"L  c #5393B6",
"P  c #698CA3",
"I  c #6797BA",
"U  c #6F93AF",
"Y  c #7DA1AF",
"T  c #198ED7",
"R  c #1392DF",
"E  c #0F8BD6",
"W  c #2891CF",
"Q  c #2798D7",
"!  c #369BDB",
"~  c #2B8FCE",
"^  c #1598E7",
"/  c #119EF1",
"(  c #0A93E5",
")  c #2299E4",
"_  c #3C9CE2",
"`  c #2EA3ED",
"'  c #3AA4EB",
"]  c #2FA5F7",
"[  c #36ADFE",
"{  c #3AA8F7",
"}  c #3CB1FF",
"|  c #35B0FF",
" . c #37A5D8",
".. c #4A97C5",
"X. c #479DDA",
"o. c #559AD2",
"O. c #599AC6",
"+. c #649AC3",
"@. c #5EA4CF",
"#. c #49A4D7",
"$. c #58A6DA",
"%. c #68B3DD",
"&. c #6EADCF",
"*. c #439EE4",
"=. c #47A5E8",
"-. c #53ABEC",
";. c #56A7E6",
":. c #5AB4E8",
">. c #46A9F3",
",. c #46B2FD",
"<. c #4BB2F9",
"1. c #5AB6F7",
"2. c #4EB0EF",
"3. c #65B3E8",
"4. c #76BAE8",
"5. c #66B8F7",
"6. c #73BDF7",
"7. c #68AEEA",
"8. c #79C4FA",
"9. c #75C0E8",
"0. c #838483",
"q. c #838B8D",
"w. c #8A8C8C",
"e. c #898A85",
"r. c #938A89",
"t. c #8D928B",
"y. c #93928E",
"u. c #96968C",
"i. c #8B8E91",
"p. c #8C9393",
"a. c #8E989C",
"s. c #939492",
"d. c #989897",
"f. c #AB9F9F",
"g. c #ACA89E",
"h. c #939DA8",
"j. c #8A99A8",
"k. c #99A4A4",
"l. c #98AABE",
"z. c #A4A4A2",
"x. c #A8AAAB",
"c. c #ABACB6",
"v. c #B1AEB1",
"b. c #AAB5BA",
"n. c #B2B3B4",
"m. c #B3B4BA",
"M. c #B4B9BC",
"N. c #BBBBBB",
"B. c #B9B8B6",
"V. c #B6AFAA",
"C. c #C3BDBB",
"Z. c #C5BBB5",
"A. c #BBC1BD",
"S. c #C2C3BC",
"D. c #CEC1B9",
"F. c #9BBBCB",
"G. c #8BB5CC",
"H. c #AAB8CA",
"J. c #B8BBC5",
"K. c #C2BCC3",
"L. c #9DC2D4",
"P. c #AFC1C9",
"I. c #B9C4C5",
"U. c #B1CCDC",
"Y. c #85C5EB",
"T. c #97C8E7",
"R. c #8BCCFD",
"E. c #85C9F8",
"W. c #9CCAF5",
"Q. c #89D5FD",
"!. c #94D4FE",
"~. c #9ED5FC",
"^. c #9BDBFF",
"/. c #98D9FC",
"(. c #B8D6E7",
"). c #A2CCFC",
"_. c #A1D5FF",
"`. c #A7D7F7",
"'. c #B4DDF3",
"]. c #9DE4FF",
"[. c #ABE3FF",
"{. c #A6E5FF",
"}. c #B6EAFF",
"|. c #B9E5FC",
" X c #BAF5FF",
".X c #C3C3C4",
"XX c #CCC4C5",
"oX c #CBCAC4",
"OX c #CCC6CA",
"+X c #C3CACB",
"@X c #CCCCCC",
"#X c #C5C6C7",
"$X c #D3CCC8",
"%X c #CDD1CD",
"&X c #D4D3CD",
"*X c #D6D1CA",
"=X c #C5CDD3",
"-X c #CFCDD2",
";X c #CDD4D5",
":X c #CAD5D8",
">X c #D3D2D3",
",X c #DDDBD5",
"<X c #D5D5DA",
"1X c #DBD6DC",
"2X c #DADADA",
"3X c #D5D9D7",
"4X c #D0CED1",
"5X c #E0DFDC",
"6X c #E5E1DC",
"7X c #ECE6DF",
"8X c #DCDCE2",
"9X c #D2DBE4",
"0X c #C3DFEB",
"qX c #E3DDE3",
"wX c #D9E4E8",
"eX c #C6E9FA",
"rX c #D4E5F3",
"tX c #D6E6FC",
"yX c #C9F5FF",
"uX c #D5F9FF",
"iX c #CEE5EB",
"pX c #E3E4E5",
"aX c #E5E5E9",
"sX c #EBECEB",
"dX c #EAE6E5",
"fX c #F1ECE6",
"gX c #E9EBF2",
"hX c #EFFDFE",
/* pixels */
"-.;.8.!.|.yX'.(.(.H.K.-X<X-XP.L.I J L L ~ W ( / ^ ^ ( E T 5.^.`.",
"! =.:.^.}.(.U.rXrXrXgXgXgXaXiX0XF.T.'.~.4.X.~ T ^ ^ ^ R T :.R._.",
"` T =.4.G.(.hX6XsXgXgXsXaXpXwXwXwXiXiXtXyXeXT.@.Q ^ / ^ ) <.8.R.",
"E R ~ J H iX6XfXfXfXdXwX1X2X>X,X*X%XwX9X<X3X=XL.J T R ^ { 1.6.R.",
"( ` A I eXwXfX7X7X7X6X2X5X5X>X4X*X%X;X>X*X$XS.M.U K ~ _ 5.8.8.R.",
"E E 9.yXwXsX5XfX6X6X6X,X-XOX$XOXoXoX-X>X$XZ.V.V.j.U C o.8.E.R.R.",
" ...|.iXpXdXpXpXwX2X>X@XXXK.XXOX4X-X@XoX.XN.x.z.d.a.P +.4.6.6.8.",
"9.&.0XwXdX6XpXwXwX;X+X#X=XOXOXOXOX@XoXC.N.M.x.z.y.r.q.B +.$.o.7.",
"l.U.wXsXqXaXqX8X-X@X+XI.=X+XOXXXS..XS.B.M.m.x.d.y.d.q.F B K o.;.",
"P.wXsXpXqXqX8X<X-X@X+X:X:X;XOXC.S.A.N.N.M.M.k.k.s.i.Z D G H 4.6.",
"J.gXpX6X1X1X3X3X$X*X&X>X>XOXI.n.N.M.M.I.N.v.k.a.i.i.0.w.s.F ).[.",
"h.rX8X2X1X>X3X3X>X*X*X*XoXC.n.c.n.M..XoXA.z.p.q.q.Z y.r.r.V F.uX",
"j.rX<X3X,X>X5X3X2X4XD.D.D.Z.b.c.m.XXXXZ.g.u.t.D i.w.r.Z p 0 V |.",
"G.rXwX3X,X,X&X%X+X.XC.Z.Z.Z.M.m.K.OXZ.g.u.t.u.d.w.Z z z q 0 3 P.",
"c.rX9X;X3X&X%XS.M.J.J.K.Z.Z.B..XK.N.z.d.u.s.d.s.0.u u q q t 4 h.",
"x.:X=X=X%XD.S.A.M.J.J.K.C.B.B.N.m.z.y.r.d.d.u.e.p t t w q w > u ",
"A..XJ..X.XS.B.A.C.N.B.B.B.Z.V.z.s.i.0.w.y.y.b r r t y y w < : - ",
"k.A.A.B.C.S.B.n.v.v.v.v.V.f.d.e.0.0.V z 0.p r w w 0 y 5 < < : , ",
"Y F.H.c.m.K.N.M.b.x.k.a.r.Z 0.p p p z a a i 9 2 > < 5 y 4 ; * 8 ",
"L &.F.H.J.c.v.n.x.a.w.V u u t i t q e a a 0 1 > - < < > 4 * S G.",
";.$.I G.H.c.g.f.a.q.r q w w 0 6 6 2 e u t 6 > : - 2 6 3 M K Y.E.",
"{ 2.$.I I U a.i.V 0 2 < < 5 6 6 6 q r e 6 : ; : > 6 * = K 7.6.R.",
"{ ,.<.*.$.O.H M 3 4 - < 9 0 6 6 2 e e 2 - : : : 3 * B .._ >.1.1.",
"` { ,.>.<.2.;.J m M 3 > 3 6 w w < < > * & & & * N G.Y.1.>.{ >.<.",
") ) } } } ,.,.<.>.;.O.H H 8 @ #     7 K C J H U (.yX}.4.=.=.>.=.",
" ._ ` [ } [ | [ } [ -.$.%.M @ O O @ M 7.-.5.R.}.|.eX X/.:.' _ >.",
"Q.:.! { { ' [ ] [ { <.=.%.N x g j % M @.X.5.]. X}.[.{.Q.2._ *.*.",
" XQ.$.#.#. .' ' { _ >.-.@.N n l k h 3 &.;.X.3./.[.~.{.8.X.*.*.-.",
"}._.E.E.9.&././.8.-.X.:.I t c l j $ , I :.#.3./.{._.~.8.$.$.:.6.",
"W._.`.}.yXeXuXuX XQ.;.o.G z l j f $ . M %.#.Q.{._._.!.Y.R./.!.R.",
").).`.'.eXtXrXtXuX}.E.I q v g d O #   3 %.#.8.^.~.W.E.9.~. X}.W.",
").W.`.'.eXtXtXtXyXyX{.I - h + + + o . X I $.%.R._.W.Y.Y.T.`.`.`."
};
