/* XPM */
static char *_f249b2784dc43efdb9f4a5e250235b8tYQGgeRATWEYCw9L[] = {
/* columns rows colors chars-per-pixel */
"32 32 232 2 ",
"   c #10130C",
".  c #151616",
"X  c #171916",
"o  c #1B1C1C",
"O  c #1E280D",
"+  c #1E2018",
"@  c #232C0F",
"#  c #252B16",
"$  c #273311",
"%  c #2B3113",
"&  c #333B16",
"*  c #383917",
"=  c #323D19",
"-  c #1F2021",
";  c #232324",
":  c #292A27",
">  c #2A2B2C",
",  c #3B3325",
"<  c #3B352B",
"1  c #383B29",
"2  c #2D2E31",
"3  c #2E3032",
"4  c #353736",
"5  c #3A3B3C",
"6  c #48371C",
"7  c #51381C",
"8  c #443A25",
"9  c #453C2B",
"0  c #4A3C2B",
"q  c #453D32",
"w  c #344617",
"e  c #3B4116",
"r  c #34411A",
"t  c #3B441B",
"y  c #3C4B1D",
"u  c #3D531E",
"i  c #3B4923",
"p  c #424617",
"a  c #42451E",
"s  c #444C1C",
"d  c #4A4D1B",
"f  c #52531D",
"g  c #5D5D1E",
"h  c #474627",
"j  c #424A23",
"k  c #4A4C24",
"l  c #4B422E",
"z  c #56492A",
"x  c #5D4A2B",
"c  c #445324",
"v  c #4D5522",
"b  c #445329",
"n  c #465C28",
"m  c #495D28",
"M  c #545C25",
"N  c #5A5E25",
"B  c #565829",
"V  c #484534",
"C  c #4D4439",
"Z  c #524333",
"A  c #5D4C35",
"S  c #52483C",
"D  c #5C4D3B",
"F  c #4E5431",
"G  c #5D5436",
"H  c #555B34",
"J  c #5E543D",
"K  c #604C2A",
"L  c #625D25",
"P  c #6A502D",
"I  c #614E35",
"U  c #614F38",
"Y  c #645235",
"T  c #6B5433",
"R  c #625D33",
"E  c #65533B",
"W  c #69563D",
"Q  c #655B3E",
"!  c #6B5A3C",
"~  c #715935",
"^  c #7A5A36",
"/  c #74593B",
"(  c #4D692D",
")  c #5C6126",
"_  c #55662B",
"`  c #5C632B",
"'  c #4F6631",
"]  c #5C6332",
"[  c #59693C",
"{  c #5C7839",
"}  c #616225",
"|  c #63662B",
" . c #646B2D",
".. c #696D2F",
"X. c #726A2A",
"o. c #7D722A",
"O. c #666A35",
"+. c #6C633B",
"@. c #77673B",
"#. c #6C7433",
"$. c #6D733B",
"%. c #6A793A",
"&. c #767A39",
"*. c #747D3B",
"=. c #3D3F41",
"-. c #424446",
";. c #474C46",
":. c #45464A",
">. c #4A4B4C",
",. c #594C43",
"<. c #4B524B",
"1. c #555545",
"2. c #4D4E51",
"3. c #4F5052",
"4. c #4D5858",
"5. c #575555",
"6. c #55565A",
"7. c #535C5C",
"8. c #595A5E",
"9. c #655441",
"0. c #695742",
"q. c #6C5A42",
"w. c #60554B",
"e. c #6E5D49",
"r. c #715D45",
"t. c #765D46",
"y. c #5E654E",
"u. c #696744",
"i. c #746146",
"p. c #756B44",
"a. c #75634B",
"s. c #796649",
"d. c #7B6B4C",
"f. c #687849",
"g. c #7A7344",
"h. c #797647",
"j. c #6B6457",
"k. c #776955",
"l. c #7A7A58",
"z. c #5D5E62",
"x. c #546263",
"c. c #5E6064",
"v. c #58686A",
"b. c #5C6E70",
"n. c #5F7375",
"m. c #606164",
"M. c #6C6B68",
"N. c #747A61",
"B. c #617476",
"V. c #627678",
"C. c #65797B",
"Z. c #767778",
"A. c #835839",
"S. c #80752D",
"D. c #88623E",
"F. c #877837",
"G. c #866848",
"H. c #946B47",
"J. c #85784F",
"K. c #957549",
"L. c #846C55",
"P. c #897758",
"I. c #95735C",
"U. c #A97447",
"Y. c #AE734C",
"T. c #B9744C",
"R. c #AB7C55",
"E. c #8B7C66",
"W. c #927C63",
"Q. c #618539",
"!. c #76853D",
"~. c #7A843B",
"^. c #6C8449",
"/. c #7D8843",
"(. c #789D4B",
"). c #7B8556",
"_. c #7F8363",
"`. c #92853B",
"'. c #838C43",
"]. c #858649",
"[. c #889347",
"{. c #8C964A",
"}. c #8D994C",
"|. c #909B4E",
" X c #8F8755",
".X c #8C9758",
"XX c #939455",
"oX c #A18558",
"OX c #86A65C",
"+X c #9AA254",
"@X c #868763",
"#X c #9A8A67",
"$X c #99956B",
"%X c #8C8375",
"&X c #978D71",
"*X c #959575",
"=X c #A58A65",
"-X c #B98767",
";X c #AC936E",
":X c #BA9467",
">X c #A68D73",
",X c #A79577",
"<X c #95A961",
"1X c #A7A76C",
"2X c #A4A878",
"3X c #B4AF75",
"4X c #C88B66",
"5X c #CC956E",
"6X c #C39672",
"7X c #CCA577",
"8X c #D2A978",
"9X c #8D8F8D",
"0X c #9B9993",
"qX c #A79D8A",
"wX c #A99E89",
"eX c #BAA885",
"rX c #B0B18D",
"tX c #AAA496",
"yX c #BCAC93",
"uX c #C0AD90",
"iX c #C7B597",
"pX c #CAB697",
"aX c #CAB799",
"sX c #D2BC9C",
"dX c #D2BFA0",
"fX c #D5C09F",
"gX c #D5C2A3",
"hX c #D7C6A9",
"jX c #D8C6A8",
"kX c #DBCAAD",
"lX c #DECDB0",
"zX c #E2D2B6",
/* pixels */
"W ! t.R.a.I I I E A E E E q.! U U W E U E q.0.W W E 0.e.e.r.q.e.",
"W q.A.4Xk.D D I E E E Y W q.! E E 0.0.W E q.0.E W W 0.e.e.q.q.e.",
"W a.=X5XR./ A I E E W Y ! q.! E W r.0.W W W 0.E E E 0.e.r.! 0.0.",
"q.d.6X4X4XG.D D E E E A E i.r.+.s.h.p.J.p.p.g.*.J.h.i.i.r.r.0.W ",
"0.L.6X4X4XL.U ,.E E A A +.h.h./././.[.~.~.[.(.*.{.}.[.].J.r.0.W ",
"0.j.4X4XT.A.U 9.E Y +.$./.`.#.#./.'.`. .Q.`.}.}.}.[.~.'.[.d.q.! ",
"9.t.6X4XT.A.U 0.E +. .g %.!.) M ) v f ) ~.~.#.`.'.}.[.!./.].r.W ",
"U t.R.-XT.H.t.L.&X*X`.g s s p p e p d  .) v v ) $.#.!.(.OX<Xs.E ",
"U r.>XtXqX>XyXyXuXuX;X&.f ) M N d L | L H k H ]  ._ { Q.OXOXp.E ",
"U k.qX0XqXwXyXaXaXdXgXeXg.g g ) a h 0 8 9 0 l k l b ( ( ^.Q.u.E ",
"p.&X0XE.wXdXkXkXkXsXjXfX3XK.o.} d , 0 0 Z Z Z a t r u n ( ' u.Q ",
"O.Z.0XE.yXkXaXpXfXpXsXsXdXeXXX..N k 0 x z T T 1 * = n m ( ' f.p.",
"` f.tX%X,XhXjXkXfXsXsXsXgXsXuX$Xs.E P ~ I G.I 9 3 1 y u n ' f.f.",
"p.@X0XN.>XdXkXjXsXgXgXgXiXwX>XP.T z ~ @.A I 9 <.4.i r r r y { f.",
"f.]._.j.#XgXlXzXhXaX&XW.P.e.e.k.K.P / ^ z Z <.b.n.7.1 O O r %.).",
"$.#.$.J J.sXpXeX;X=Xs.s.a.1.W H.K.T / i.l C x.n.C.b.;.$ $ = b l.",
"$. . ...N eX=XoX:X6X;XU.U 3 A.oXH.P P ^ 0 V x.C.V.V.7.< $ % i [ ",
"@.| )  .N ;X#XF.:X5X7XU.0 : A.U.D.K d x s V x.n.x.V.7.l = @ u f.",
"+.#.&.#.O.J.F.o.J.5X8XY.,.=.A.U.A.* e & w j 4.n.V.V.7.0 r = n N.",
"+.| ..` f ) } o.X.:X8XY.I.I.P.L.K p e $ u j ;.v.n.b.<.y = r t ' ",
"R B N ) M ) ) S.S.:X6XK. XG.l.J.^ K * * * a C 7.v.7.l j * * i H ",
"R H ) M ) ) p F.`.XXE.R ` $.].@XG.~ a * 6 6 Z S 1.C 6 7 T R b u.",
"E R ` ` _ t * X.v ] &.B G J t.W.G.D.#.) L B J W A q 6 6 I P.] i.",
"E ] ` ) s & f L c ` [.'.&.| z ~ ~ ^ K.[.XX#X*X@X).k.R N z h.h.a.",
"W G ) v j j f N * M *./.+X}. .&.).p.#XqX2XtXrXrX2X2X.X] ] O.h.a.",
"W G k v s M e * % * s v %.|.{.1X3X1X1X2X$X*X@X@XN.N.y.i v v 0.a.",
"! E < 1 * v %   . X + - # 1 i F ( m V i i 5 4 -.8.M.c.1 i 1.j.a.",
"W E q =.5 : o   . - ; - 2 2 > 2 3 4 =.-.:.2.6.8.m.z.z.z.Z.9XM.i.",
"E U ,.c.c.:.3 ; ; 4 -.=.3.z.z.z.m.m.m.m.z.6.6.6.6.m.B.Z.9XZ.e.q.",
"U U ,.w.5.>.5 2 > 3 =.=.-.>.2.2.3.3.2.2.>.:.:.-.-.:.2.5.y.e.E W ",
"E 0.0.0.q.w.S < > - o . . . . . o o o - ; ; > < q S J 9.0.q.E W ",
"q.0.q.0.e.r.q.9.U 0 9 8 < < , , , 9 q q S D 9.9.0.0.E W W W E q."
};
